<svg width="24" height="24" viewBox="0 0 24 24" fill="none" xmlns="http://www.w3.org/2000/svg">
<g id="Frame">
<g id="Group 1597880505">
<path id="Vector 1" d="M10.7999 2.09995C10.6302 2.26966 10.1999 2.79995 9.8999 3.29995L8.3999 3.29995C8.8999 2.79995 9.89632 1.65174 10.1999 1.49995C10.7999 1.19995 11.3999 1.19995 12.5999 1.19995C13.5599 1.19995 14.5999 2.59995 14.9999 3.29995L13.7999 3.29995C13.4999 2.89995 12.7799 2.03995 12.2999 1.79995C11.6999 1.49995 11.0999 1.79996 10.7999 2.09995Z" fill="#5D0300"/>
<path id="Vector" d="M12.197 1.54504C12.3552 1.55433 12.511 1.56784 12.6653 1.60574C13.4202 1.79112 14.0469 2.43965 14.4411 3.08808C14.235 3.09965 14.0253 3.09234 13.8187 3.09255C13.5796 2.57482 13.1139 2.08726 12.6393 1.78117C12.5015 1.69231 12.3409 1.64112 12.2054 1.5508C12.2026 1.54892 12.1998 1.54696 12.197 1.54504Z" fill="url(#paint0_linear_2005_103)"/>
<path id="Vector_2" d="M10.9038 1.8252L10.9115 1.82729C10.9178 1.84559 10.5757 2.13274 10.5279 2.18302C10.2539 2.47147 10.0836 2.84882 9.9509 3.21843C9.68722 3.21833 9.42367 3.22452 9.16027 3.23702L9.14258 3.22687C9.14337 3.21452 9.14276 3.21144 9.14826 3.19835C9.18143 3.11929 9.28851 3.02233 9.34689 2.95625C9.78886 2.45602 10.2989 2.10326 10.9038 1.8252Z" fill="url(#paint1_linear_2005_103)"/>
<path id="Vector 2" d="M11.0099 3.13378C10.7516 3.13378 6.81223 3.33445 4.87482 3.43478C4.76718 3.53512 4.48734 3.85619 4.22901 4.3378C3.97069 4.8194 3.90611 5.94315 3.90611 6.44482L2.61451 12.1639C2.61451 12.0635 2.54993 11.8629 2.29161 11.8629C2.03328 11.8629 1.75344 12.2642 1.6458 12.4649C1.43054 13.2676 1 14.9933 1 15.4749C1 15.9565 1.43054 16.2776 1.6458 16.3779V16.6789C1.75344 17.3813 2.03328 18.9064 2.29161 19.388C2.54993 19.8696 3.04504 20.3913 3.26031 20.592C3.47558 21.0936 4.03527 22.1572 4.55192 22.398C5.06856 22.6388 6.91986 22.8997 7.78093 23C10.7947 23 17.0805 22.9398 18.1138 22.699C19.4054 22.398 20.0512 21.796 20.3741 21.796C20.6324 21.796 20.697 20.9933 20.697 20.592L21.6657 19.99C21.881 19.689 22.3115 18.9666 22.3115 18.485C22.3115 18.0033 22.0962 16.8796 21.9886 16.3779C22.2039 16.2776 22.699 15.9565 22.9573 15.4749C23.2802 14.8729 21.6657 12.1639 21.6657 11.8629C21.6657 11.6221 21.0199 11.7625 20.697 11.8629L19.0825 5.54181V4.3378C19.0825 3.73579 18.1138 3.43478 17.468 3.13378C16.8222 2.83278 11.3328 3.13378 11.0099 3.13378Z" fill="url(#paint2_linear_2005_103)"/>
<path id="Vector_3" d="M8.61108 3.19931C8.66865 3.08339 8.78979 2.97213 8.87734 2.87643C9.2698 2.44748 9.69481 2.01054 10.1886 1.6967C10.6458 1.40613 11.0541 1.29524 11.5911 1.28863C11.69 1.28741 11.7987 1.27145 11.8953 1.29633C11.9497 1.31033 11.9605 1.34172 11.9861 1.38706C11.9795 1.3891 11.9728 1.39123 11.9662 1.39317C11.8967 1.41336 11.8165 1.41393 11.7446 1.42491C11.5814 1.44984 11.416 1.47894 11.2573 1.52487C10.3252 1.79458 9.50228 2.44492 8.95825 3.24073C8.82635 3.25745 8.7336 3.26129 8.61108 3.19931Z" fill="url(#paint3_linear_2005_103)"/>
<path id="Vector_4" d="M21.5034 17.3449C21.5382 17.3097 21.5808 17.2823 21.6208 17.2534C21.6272 17.3258 21.636 17.3989 21.6377 17.4715L21.6047 17.4261C21.5715 17.4238 21.5514 17.4327 21.526 17.4562C21.5225 17.4594 21.52 17.4634 21.517 17.467C21.507 17.4301 21.5074 17.3834 21.5034 17.3449Z" fill="#F0D79E"/>
<path id="Vector_5" d="M21.4966 17.2066C21.5079 17.1743 21.518 17.1379 21.5334 17.1075C21.5501 17.0745 21.5642 17.0688 21.5977 17.0555C21.6056 17.1193 21.6202 17.1895 21.6208 17.2533C21.5808 17.2821 21.5383 17.3096 21.5035 17.3447C21.494 17.299 21.4962 17.2531 21.4966 17.2066Z" fill="#FAC149"/>
<path id="Vector_6" d="M8.6724 18.0288C8.64591 18.1298 8.62422 18.2245 8.52713 18.2816C8.4692 18.3157 8.39918 18.3288 8.33423 18.3432C8.39292 18.2685 8.52342 18.2012 8.60164 18.1021C8.62414 18.0735 8.64446 18.0519 8.6724 18.0288Z" fill="#DED5CD"/>
<path id="Vector_7" d="M19.6601 20.702C19.6587 20.7413 19.6551 20.7814 19.66 20.8204C19.5952 20.8573 19.5296 20.8842 19.46 20.9107C19.4611 20.8635 19.4561 20.8167 19.4521 20.7697C19.5217 20.7559 19.593 20.7255 19.6601 20.702Z" fill="#FAC149"/>
<path id="Vector_8" d="M19.6601 20.702C19.7201 20.6589 19.7921 20.6251 19.8568 20.5889L19.9181 20.6589C19.8341 20.7179 19.75 20.771 19.66 20.8204C19.6551 20.7813 19.6586 20.7413 19.6601 20.702Z" fill="#F0D79E"/>
<path id="Vector_9" d="M5.02433 17.6339C5.07737 17.5516 5.05353 17.2406 5.05958 17.1282C5.06221 17.2822 5.10155 18.797 5.09164 18.8195C5.05958 18.778 5.00756 17.7897 5.02131 17.6543C5.02202 17.6475 5.0233 17.6407 5.02433 17.6339Z" fill="#71463E"/>
<path id="Vector_10" d="M8.16652 10.6985L8.39138 10.7855C8.39109 10.8798 8.39721 10.9751 8.42221 11.0665L8.16602 10.9992L8.16652 10.6985Z" fill="url(#paint4_linear_2005_103)"/>
<path id="Vector_11" d="M19.1859 20.7377C19.2776 20.7835 19.3526 20.7882 19.4522 20.7697C19.4561 20.8167 19.4611 20.8635 19.4601 20.9107C19.2746 20.9526 19.0818 20.9557 18.8994 20.8992C18.9181 20.8662 18.9358 20.8627 18.9689 20.8457C19.0472 20.8198 19.115 20.779 19.1859 20.7377Z" fill="#F1AC3D"/>
<path id="Vector_12" d="M4.56998 7.65015C4.62584 7.93126 4.73442 8.33204 4.84615 8.59504C4.93928 8.81431 5.08526 9.03586 5.13449 9.26947C5.15702 9.37637 5.13349 9.48513 5.11573 9.59103C5.10823 9.41088 4.98578 9.24124 4.91836 9.07791C4.76091 8.6965 4.54762 8.05892 4.56998 7.65015Z" fill="url(#paint5_linear_2005_103)"/>
<path id="Vector_13" d="M8.13428 11.161C8.31076 11.1921 8.47982 11.2501 8.65187 11.2987C8.48996 11.4966 8.28413 11.6558 8.126 11.8558C8.0891 11.6417 8.12703 11.3789 8.13428 11.161Z" fill="url(#paint6_linear_2005_103)"/>
<path id="Vector_14" d="M17.4023 9.73796C17.5178 9.51452 17.6935 9.30711 17.8433 9.10498C17.852 9.26571 17.8821 9.42591 17.9064 9.58488C17.7281 9.7229 17.6302 9.94886 17.477 10.0572C17.4638 9.95557 17.4571 9.82706 17.4023 9.73796Z" fill="#581E1C"/>
<path id="Vector_15" d="M17.809 4.565C17.8701 4.55748 17.97 4.54978 18.0194 4.59399C18.034 4.60705 18.0288 4.61693 18.0288 4.63481C17.9889 4.66745 17.938 4.67563 17.8883 4.68404C17.6959 4.71663 17.4941 4.71584 17.2996 4.73516C17.0306 4.76184 16.7624 4.80679 16.4947 4.84456C16.4435 4.8551 16.3887 4.87334 16.3393 4.84942C16.3112 4.83586 16.298 4.82471 16.2878 4.79567C16.2916 4.79004 16.2943 4.7836 16.299 4.77882C16.3922 4.68498 17.5954 4.58487 17.809 4.565Z" fill="url(#paint7_linear_2005_103)"/>
<path id="Vector_16" d="M17.0018 17.8481C17.2709 17.7438 17.4763 17.6041 17.6801 17.4026L17.6725 17.6136C17.6425 17.6602 17.637 17.7067 17.6299 17.7608C17.6255 17.7865 17.6214 17.8097 17.6142 17.8348C17.4223 17.9392 17.1222 18.1603 16.9104 18.1708C16.9816 18.0657 16.998 17.9721 17.0018 17.8481Z" fill="#E3822B"/>
<path id="Vector_17" d="M5.69753 10.0081C5.86191 10.1966 6.02679 10.3731 6.22553 10.5271C6.36265 10.6334 6.51899 10.7233 6.64553 10.8418C6.67541 10.8698 6.67502 10.8839 6.68069 10.9227C6.63167 10.9321 6.60011 10.9773 6.56801 11.0126C6.40565 10.8684 6.21415 10.7574 6.04564 10.6205C5.92707 10.5241 5.83174 10.4031 5.70767 10.3125C5.69469 10.2109 5.69642 10.1102 5.69753 10.0081Z" fill="url(#paint8_linear_2005_103)"/>
<path id="Vector_18" d="M16.4125 7.74292C16.4985 7.76962 16.553 7.79265 16.5942 7.87689C16.689 8.0705 16.6074 8.38746 16.5725 8.59175C16.3857 8.50543 16.225 8.45843 16.0198 8.43798C16.2584 8.28501 16.34 7.99938 16.4125 7.74292Z" fill="#E98F2F"/>
<path id="Vector_19" d="M7.2561 18.5629C7.64784 18.567 8.01974 18.5623 8.40554 18.4825L8.40373 18.8728C8.17235 18.7971 7.87449 18.658 7.63465 18.7757C7.496 18.8437 7.40285 18.9773 7.3123 19.0971C7.29298 18.9189 7.28375 18.7401 7.2561 18.5629Z" fill="#581E1C"/>
<path id="Vector_20" d="M6.86742 6.27871L6.93825 6.27087L6.9587 6.28725C6.96454 6.32331 6.96348 6.34836 6.95812 6.38458C6.82052 6.46974 6.14284 6.5518 5.95028 6.58739L5.06481 6.75879C5.03929 6.76444 5.02778 6.76591 5.00315 6.75645C4.97421 6.719 4.97883 6.66004 4.97607 6.61428C5.18974 6.55514 5.42081 6.52665 5.63946 6.48761C6.04787 6.41263 6.45719 6.343 6.86742 6.27871Z" fill="url(#paint9_linear_2005_103)"/>
<path id="Vector_21" d="M8.33706 6.2695L8.53157 6.24243C8.49734 6.33017 8.51167 6.46958 8.50752 6.56649C8.49777 6.79354 8.48226 7.02079 8.4817 7.2481C8.48099 7.53972 8.49624 7.82995 8.49035 8.12221L8.46178 8.14389L8.44683 8.11995C8.41423 7.98944 8.36968 7.90573 8.26636 7.81781C8.27419 7.30053 8.30899 6.78586 8.33706 6.2695Z" fill="#E98F2F"/>
<path id="Vector_22" d="M4.27647 13.3296L4.29978 13.3517C4.29926 13.3791 4.30002 13.3896 4.28378 13.413C4.20697 13.5234 4.07708 13.6083 3.98734 13.7432C3.88489 13.8972 3.81739 14.097 3.76713 14.2742C3.55289 15.0293 3.73464 15.4845 3.14561 16.1326L3.13281 16.1336C3.13352 16.0797 3.3167 15.7226 3.3454 15.6358C3.47017 15.2585 3.52221 14.8628 3.60435 14.4752C3.71401 13.9575 3.81731 13.6286 4.27647 13.3296Z" fill="#FAC149"/>
<path id="Vector_23" d="M19.9082 20.8628L19.9153 20.8697C19.8631 21.0168 19.2451 21.4365 19.0717 21.5287C18.9862 21.5742 18.6974 21.7467 18.6167 21.7219L18.6133 21.6917C18.6697 21.466 18.7204 21.2387 18.7745 21.0124C18.8214 21.0292 18.8686 21.0464 18.9166 21.0593C19.296 21.1618 19.5815 21.0515 19.9082 20.8628Z" fill="url(#paint10_linear_2005_103)"/>
<path id="Vector_24" d="M6.68066 8.08235C6.7372 7.96165 6.82865 7.91024 6.95034 7.86674C7.25374 7.75834 7.82306 7.73708 8.11797 7.87594C8.18828 7.90903 8.25662 7.96318 8.28219 8.03922C8.29384 8.07383 8.29547 8.11213 8.29379 8.14827C8.28827 8.18959 8.29936 8.23138 8.29055 8.2707L8.27583 8.27888C8.2445 8.24021 8.21622 8.19582 8.18223 8.15994C8.13379 8.10882 8.06543 8.08979 7.99948 8.0732C7.69545 7.9968 7.35094 8.06385 7.04638 8.11728C6.93815 8.13626 6.81989 8.16643 6.70976 8.15826C6.68185 8.13718 6.68639 8.11557 6.68066 8.08235Z" fill="#F1AC3D"/>
<path id="Vector_25" d="M8.21415 9.28529C8.28328 9.25724 8.31246 9.1781 8.34084 9.11244C8.36894 9.04747 8.40847 8.89344 8.46993 8.86621C8.49508 8.88803 8.4945 8.9095 8.49779 8.94128C8.52226 9.17731 8.45282 9.42165 8.45568 9.65787C8.45497 9.73767 8.44866 9.81931 8.46958 9.897C8.47014 9.89905 8.47064 9.90113 8.47116 9.90321C8.45465 10.0785 8.43894 10.251 8.44112 10.4275C8.40674 10.3678 8.34692 10.2234 8.28906 10.1967C8.31303 10.276 8.36563 10.3608 8.41441 10.4276L8.44033 10.43C8.44346 10.5046 8.43373 10.5992 8.45048 10.6705L8.16831 10.5879C8.16766 10.2038 8.15927 9.65847 8.21415 9.28529Z" fill="#E3822B"/>
<path id="Vector_26" d="M3.85005 14.4895C3.85994 14.6069 3.85129 14.7297 3.85302 14.848L3.869 15.5532C3.7712 15.6323 3.73729 15.8008 3.68533 15.9134C3.50712 16.2996 3.09506 16.7234 2.66424 16.8109C2.57618 16.8288 2.48983 16.811 2.40165 16.8151C2.39137 16.7482 2.39282 16.6791 2.39111 16.6115C2.60388 16.5911 2.78591 16.5347 2.96803 16.421C3.77711 15.9157 3.66115 15.2879 3.85005 14.4895Z" fill="#E98F2F"/>
<path id="Vector_27" d="M21.5171 17.467C21.5201 17.4634 21.5226 17.4593 21.5261 17.4561C21.5515 17.4326 21.5716 17.4237 21.6048 17.426L21.6378 17.4715C21.6689 17.6601 21.6779 17.8509 21.6913 18.0413C21.726 18.5358 21.7267 18.8471 21.4253 19.2656C21.0267 19.8192 20.4766 20.2752 19.9183 20.6589L19.8569 20.5889C20.3234 20.289 20.9764 19.595 21.3036 19.159C21.3931 19.0398 21.4777 18.9099 21.5228 18.7666C21.6189 18.4619 21.564 17.7934 21.5171 17.467Z" fill="#E2483D"/>
<path id="Vector_28" d="M16.8984 18.1809C16.9262 18.2947 16.9551 18.4004 16.8916 18.5105C16.8793 18.5318 16.8643 18.5511 16.8447 18.5662C16.7906 18.6077 16.7012 18.625 16.6732 18.6915C16.6252 18.8054 16.7768 19.3478 16.7942 19.5068C16.8125 19.6743 16.8119 19.8522 16.7868 20.019C16.7486 20.2733 16.6467 20.5217 16.5352 20.7521C16.4515 20.9249 16.0926 21.5114 16.0868 21.6537C16.0269 21.6607 15.9658 21.6705 15.9055 21.6709C16.0385 21.4706 16.1014 21.2386 16.1989 21.0208C16.308 20.7774 16.4404 20.5422 16.5187 20.286C16.68 19.7585 16.6155 18.9116 16.591 18.3466C16.6973 18.2963 16.7998 18.2456 16.8984 18.1809Z" fill="#E3822B"/>
<path id="Vector_29" d="M6.14136 3.58482C6.52453 3.54095 6.92045 3.49911 7.30615 3.48901C7.25253 3.78105 7.20563 4.07416 7.16545 4.36833C7.14008 4.5474 7.12252 4.73129 7.08859 4.90871C6.99371 4.80339 6.98627 4.58778 6.92681 4.45572C6.80609 4.18762 6.57904 3.94499 6.35699 3.75711C6.29286 3.70284 6.22024 3.65702 6.15844 3.60067L6.14136 3.58482Z" fill="url(#paint11_linear_2005_103)"/>
<path id="Vector_30" d="M5.92847 17.9011C6.18111 18.0446 6.42054 18.1412 6.70512 18.2051C6.75298 18.3309 6.80166 18.4227 6.93108 18.4816C7.00873 18.517 7.09977 18.5335 7.18338 18.549C7.20814 18.8232 7.22095 19.0936 7.22636 19.3688C7.23212 19.6606 7.22215 19.9592 7.27832 20.2467C7.3398 20.5615 7.4657 20.8576 7.59778 21.1482C7.69958 21.3722 7.79544 21.591 7.98377 21.7573C7.98445 21.7869 7.99457 21.8133 7.99268 21.8425C7.97901 21.8333 7.96582 21.824 7.95286 21.8138C7.74521 21.6497 7.6211 21.4111 7.49622 21.1831C7.13289 20.5198 7.068 20.182 7.11599 19.4284C7.12966 19.2137 7.15426 18.9921 7.12496 18.7778L7.12238 18.7595C7.01845 18.7089 6.90732 18.671 6.80208 18.6222C6.56981 18.5128 6.33982 18.3988 6.11209 18.2802C6.06478 18.2261 6.00827 18.1769 5.95635 18.127L5.92847 17.9011Z" fill="#E3822B"/>
<path id="Vector_31" d="M3.89722 20.5433C4.03763 20.5999 4.17415 20.7196 4.30896 20.7942C4.60066 20.9556 4.83076 20.9661 5.14696 20.8735C5.14867 21.2035 5.18909 21.5282 5.23722 21.8541C5.23903 21.8717 5.23703 21.8783 5.23201 21.8948C5.18817 21.8975 5.15379 21.8733 5.11747 21.8499C4.83599 21.6686 4.18048 21.1501 4.01016 20.8764C3.94547 20.7724 3.92277 20.6613 3.89722 20.5433Z" fill="#E2483D"/>
<path id="Vector_32" d="M4.125 21.4746C4.18498 21.4949 4.23316 21.6037 4.27025 21.6564C4.37257 21.802 4.50607 21.9338 4.6489 22.0394C5.12551 22.3917 5.79676 22.5661 6.36705 22.6942C7.24794 22.8921 8.15591 22.9879 9.0556 23.0521C9.20079 23.0625 10.0908 23.0933 10.1456 23.1351C9.55148 23.1398 8.95782 23.1263 8.36458 23.0945C7.42663 23.0446 6.45405 22.9838 5.56654 22.651C4.96452 22.4252 4.39938 22.0801 4.125 21.4746Z" fill="#E2483D"/>
<path id="Vector_33" d="M5.9563 18.1271C6.00821 18.177 6.06472 18.2261 6.11203 18.2803C6.1794 18.8256 6.26188 19.3641 6.3528 19.9058C6.42936 20.3621 6.48703 20.8536 6.68167 21.2784C6.73158 21.3874 6.8098 21.4932 6.89026 21.5814C6.94556 21.6421 7.21006 21.8571 7.22333 21.8978C7.04273 21.8541 6.87273 21.75 6.73487 21.6273C6.7029 21.5986 6.67249 21.5684 6.64361 21.5366C6.61473 21.5048 6.58754 21.4717 6.56205 21.4371C6.53655 21.4026 6.51287 21.3668 6.491 21.3298C6.46915 21.2929 6.44923 21.2549 6.43123 21.2159C6.07282 20.4547 6.00151 18.9915 5.9563 18.1271Z" fill="#E2483D"/>
<path id="Vector_34" d="M6.68055 8.08228C6.68628 8.1155 6.68173 8.1371 6.70965 8.15818C6.81978 8.16636 6.93803 8.13618 7.04627 8.11721C7.35083 8.06377 7.69533 7.99672 7.99936 8.07313C8.06531 8.08971 8.13368 8.10874 8.18212 8.15987C8.2161 8.19575 8.24439 8.24014 8.27572 8.2788L8.29044 8.27063C8.29924 8.23131 8.28815 8.18952 8.29367 8.1482C8.29627 8.16158 8.29874 8.1743 8.29953 8.18796C8.30686 8.31579 8.32009 8.60136 8.23069 8.69988C8.18948 8.70931 8.12101 8.67136 8.08114 8.65738C7.68632 8.51888 7.12376 8.54175 6.74792 8.72406C6.61479 8.5469 6.66233 8.28848 6.68055 8.08228Z" fill="#E98F2F"/>
<path id="Vector_35" d="M5.94652 13.4888L5.95772 13.492C5.9829 13.5488 5.83768 13.9534 5.81478 14.0582C5.78603 14.19 5.7685 14.3276 5.74805 14.461C5.62417 15.2688 5.49219 16.4889 5.87074 17.2399C6.04059 17.5769 6.31142 17.7572 6.66122 17.8735C6.67202 17.925 6.69218 17.9828 6.67565 18.0341C6.64781 18.0556 6.64232 18.0517 6.60652 18.0511C6.32483 17.9712 6.05991 17.8596 5.8576 17.6401C5.43571 17.1824 5.46218 16.1323 5.48875 15.5391C5.50904 15.0861 5.57197 14.1905 5.74132 13.7836C5.79021 13.6661 5.85271 13.5745 5.94652 13.4888Z" fill="#FAC149"/>
<path id="Vector_36" d="M16.8516 3.71804C16.8831 3.69452 16.9148 3.67451 16.9511 3.65909C17.2684 3.52419 17.5286 3.71809 17.8125 3.82568L17.823 3.82957C17.8926 4.03198 17.9439 4.23842 17.9931 4.44659C17.5652 4.46084 17.1425 4.52034 16.7188 4.57793C16.7369 4.41986 16.8382 4.2825 16.8668 4.127C16.8906 3.9971 16.8568 3.85033 16.8516 3.71804Z" fill="#E2483D"/>
<path id="Vector_37" d="M16.136 3.34265C16.6698 3.42224 17.2028 3.49468 17.7353 3.58407C17.768 3.66453 17.795 3.74743 17.8233 3.82954L17.8128 3.82565C17.5289 3.71807 17.2687 3.52417 16.9514 3.65906C16.9151 3.67449 16.8834 3.69449 16.8519 3.71802C16.8572 3.85031 16.891 3.99708 16.8671 4.12698C16.8386 4.28247 16.7372 4.41984 16.7191 4.57791C16.5779 4.60837 16.4343 4.62688 16.2915 4.64761C16.2458 4.21189 16.194 3.7769 16.136 3.34265Z" fill="url(#paint12_linear_2005_103)"/>
<path id="Vector_38" d="M14.8537 4.93697C14.8658 4.93547 14.8811 4.93736 14.8934 4.93778C14.9005 4.94688 14.9159 4.96357 14.9202 4.97519C14.9314 5.00512 14.9236 5.0139 14.9104 5.04029C14.8724 5.06337 14.8354 5.07701 14.7918 5.08595C14.5795 5.12945 14.3582 5.15226 14.1438 5.18722L12.6723 5.43051C11.2575 5.66693 9.84391 5.9106 8.43157 6.16153C8.41056 6.16389 8.39519 6.16736 8.375 6.1588C8.3592 6.15209 8.35353 6.13222 8.35119 6.11603C8.34893 6.10037 8.35085 6.08026 8.36126 6.06775C8.39411 6.02819 8.46547 6.01011 8.51352 5.99899C8.79786 5.93322 9.09241 5.89669 9.3804 5.85009L10.559 5.64885C11.9883 5.39733 13.4198 5.16004 14.8537 4.93697Z" fill="url(#paint13_linear_2005_103)"/>
<path id="Vector_39" d="M20.0822 11.9578C20.3389 12.008 20.6337 12.0556 20.8401 12.2266C20.6458 12.3813 19.9684 13.0085 19.8602 13.1947C19.6089 13.0137 19.4055 12.9604 19.0986 12.9585C19.2194 12.8076 19.3679 12.674 19.5056 12.5388C19.7017 12.3489 19.8938 12.1552 20.0822 11.9578Z" fill="#E2483D"/>
<path id="Vector_40" d="M17.302 13.1022C17.3722 13.1235 17.4602 13.1678 17.5021 13.2306C17.6269 13.4177 17.6662 13.6918 17.7184 13.9087C17.8852 14.6015 18.1408 15.7387 18.008 16.4408C17.9144 16.9354 17.5675 17.3298 17.165 17.6068C17.12 17.6315 17.0709 17.6516 17.0244 17.6736C17.0383 17.54 17.0487 17.4075 17.0544 17.2733C17.3521 17.1173 17.5621 16.91 17.7012 16.6005C17.7322 16.5321 17.758 16.4617 17.7786 16.3895C17.7993 16.3172 17.8145 16.2439 17.8243 16.1694C17.9315 15.3388 17.6011 13.8854 17.302 13.1022Z" fill="#F1AC3D"/>
<path id="Vector_41" d="M5.04671 20.5722C5.01814 20.2907 4.95022 20.0155 4.92598 19.7325C4.88064 19.2035 4.89576 18.6712 4.86398 18.1415C4.81677 17.3542 4.72062 16.5705 4.67494 15.7831C4.65628 15.4615 4.65536 15.1407 4.65381 14.8186C4.6531 14.6752 4.62558 14.3678 4.69812 14.25C4.75734 14.704 4.74733 15.174 4.7794 15.6315C4.82384 16.2653 4.87896 16.8986 4.91797 17.5329C4.94833 18.0737 4.974 18.6148 4.99498 19.1562C5.01078 19.4961 5.02904 19.8382 5.06411 20.1767C5.07983 20.3286 5.11936 20.4827 5.12816 20.6341C5.13066 20.6772 5.13121 20.6964 5.11005 20.7333C4.98594 20.812 4.76565 20.7978 4.62603 20.7674C4.0677 20.646 3.28009 19.8729 2.98144 19.3969C2.7724 19.0638 2.66248 18.6758 2.58545 18.2929C2.59062 18.2986 2.59599 18.3041 2.60096 18.31C2.71258 18.442 2.74404 18.6661 2.82844 18.8204C3.17379 19.4519 3.93667 20.604 4.69731 20.709C4.78607 20.7213 4.98941 20.7343 5.06069 20.6753C5.07488 20.6635 5.07559 20.661 5.08521 20.6476C5.0788 20.62 5.07202 20.6131 5.0543 20.5919L5.04671 20.5722Z" fill="#E2483D"/>
<path id="Vector_42" d="M5.59317 13.1586C5.74357 12.9923 5.86976 12.7907 6.00105 12.6088C6.13081 12.4289 6.27049 12.2552 6.39652 12.0729C6.49275 11.9338 6.57857 11.7806 6.68946 11.653C6.67763 12.1874 6.68841 12.719 6.69091 13.2533C6.37723 13.273 5.95923 13.2601 5.73071 13.5146C5.67376 13.578 5.63344 13.6559 5.599 13.7334C5.59164 13.5415 5.58652 13.3507 5.59317 13.1586Z" fill="#E2483D"/>
<path id="Vector_43" d="M14.9824 8.62275C14.9348 8.43242 14.8942 8.1971 14.933 8.00189C14.9507 7.91257 14.9895 7.84003 15.0676 7.79051C15.3653 7.60181 16.0779 7.67544 16.4127 7.74299C16.3402 7.99944 16.2585 8.28507 16.02 8.43805C15.6544 8.44546 15.3261 8.49651 14.9824 8.62275Z" fill="#F1AC3D"/>
<path id="Vector_44" d="M4.46481 6.95715L4.46402 7.13888C4.38046 7.80367 4.21045 8.46054 4.09964 9.12167C3.92707 10.1745 3.80354 11.233 3.72903 12.2972C3.63201 12.2378 3.53408 12.1827 3.43359 12.1294C3.43512 11.8368 3.48117 11.5403 3.52186 11.2512C3.64739 10.3592 3.85356 9.48174 4.05293 8.6041C4.1281 8.26807 4.20689 7.93289 4.28928 7.59857C4.34245 7.38346 4.39213 7.16669 4.46481 6.95715Z" fill="#E2483D"/>
<path id="Vector_45" d="M2.37372 16.2383C2.37683 16.2402 2.3798 16.2422 2.38304 16.2438C2.43165 16.2675 2.4905 16.258 2.54043 16.2435C3.11204 16.0774 3.15286 14.984 3.24985 14.4943C3.3129 14.1758 3.39515 13.8426 3.5595 13.5603C3.74465 13.2424 4.00315 13.0915 4.35155 13.0009C4.58364 13.2129 4.64851 13.4574 4.68289 13.7616C4.60007 13.6653 4.50763 13.5822 4.41211 13.499C4.43443 13.4236 4.4626 13.3213 4.41429 13.2493C4.39605 13.2222 4.3705 13.2121 4.3392 13.208C4.24197 13.1955 4.11481 13.2788 4.03998 13.3363C3.16957 14.0052 3.60319 15.6774 2.77376 16.3267C2.67193 16.4064 2.54155 16.4658 2.40974 16.447C2.29263 16.4303 2.19489 16.3591 2.12443 16.2667C1.87797 15.9434 1.95359 15.4637 2.00039 15.091C1.98765 15.0529 1.98019 15.036 1.99705 14.9997C2.02276 14.982 2.04877 14.9652 2.06836 14.9405C2.07236 14.9354 2.07618 14.9302 2.08009 14.9251L2.06807 15.15C2.06638 15.4595 2.07285 15.8462 2.30314 16.085C2.31516 16.0974 2.32753 16.1094 2.34025 16.121C2.33233 16.1638 2.35658 16.199 2.37372 16.2383Z" fill="#FAC149"/>
<path id="Vector_46" d="M2.00019 15.0909C1.98744 15.0529 1.97999 15.036 1.99685 14.9997C2.02255 14.9819 2.04856 14.9652 2.06815 14.9404C2.07215 14.9354 2.07597 14.9302 2.07988 14.925L2.06786 15.15C2.06617 15.4594 2.07265 15.8462 2.30294 16.085C2.31495 16.0974 2.32732 16.1094 2.34005 16.121C2.33212 16.1638 2.35637 16.199 2.37351 16.2383C2.29393 16.2031 2.23432 16.1503 2.18308 16.08C2.00665 15.8379 1.97257 15.4873 2.01799 15.1995C2.01679 15.163 2.02339 15.1193 2.00019 15.0909Z" fill="url(#paint14_linear_2005_103)"/>
<path id="Vector_47" d="M17.2936 9.84253C17.3087 10.0217 17.3587 10.2031 17.3588 10.3828C16.8817 11.0395 16.9421 12.1201 16.9398 12.8967C16.8243 12.8974 16.7066 12.8876 16.591 12.8827C16.5757 12.4941 16.5817 12.1058 16.578 11.717C16.5727 11.3199 16.5607 10.923 16.542 10.5263C16.8408 10.3624 17.0936 10.116 17.2936 9.84253Z" fill="url(#paint15_linear_2005_103)"/>
<path id="Vector_48" d="M18.1143 9.73029L18.1368 9.72766C18.2554 9.87498 18.3387 10.1323 18.4128 10.311C18.6877 10.9737 18.8489 11.4775 18.936 12.196C18.9636 12.4236 18.958 12.6555 18.9924 12.8821C18.8292 13.0375 18.673 13.1921 18.5288 13.3657C18.533 12.9104 18.4678 12.4598 18.4163 12.0084C18.3316 11.2469 18.231 10.4875 18.1143 9.73029Z" fill="#E2483D"/>
<path id="Vector_49" d="M19.2151 13.0494C19.2237 13.0493 19.2323 13.0492 19.241 13.0497C19.6018 13.0729 19.9082 13.3323 20.0714 13.642C20.4222 14.308 20.4708 15.5324 20.9651 16.0766C21.0517 16.1719 21.166 16.2607 21.3002 16.2639C21.311 16.264 21.3218 16.2637 21.3325 16.2627C21.3433 16.2618 21.354 16.2604 21.3646 16.2584C21.3752 16.2564 21.3857 16.2539 21.396 16.2508C21.4064 16.2477 21.4166 16.2442 21.4266 16.2401C21.4366 16.236 21.4463 16.2315 21.4559 16.2264C21.4654 16.2213 21.4747 16.2158 21.4837 16.2098C21.4927 16.2038 21.5013 16.1974 21.5097 16.1905C21.518 16.1837 21.526 16.1764 21.5336 16.1688C21.8135 15.8877 21.6604 14.9519 21.6509 14.575L21.6614 14.5866L21.6539 14.5678L21.6643 14.5773C21.7364 14.9809 21.849 15.6788 21.7551 16.0755C21.7214 16.2183 21.6529 16.3141 21.5288 16.3903C21.4008 16.4369 21.2744 16.454 21.1402 16.424C20.3213 16.2406 20.2616 14.3241 19.8549 13.6866C19.73 13.4908 19.5546 13.3465 19.324 13.297C19.1756 13.2652 19.0375 13.3089 18.9135 13.3909C18.5384 13.6388 18.5197 14.1053 18.4394 14.502C18.408 14.1437 18.3951 13.7695 18.5976 13.4538C18.7474 13.2202 18.9503 13.1081 19.2151 13.0494Z" fill="#F1AC3D"/>
<path id="Vector_50" d="M16.9401 12.8967C16.9424 12.1201 16.882 11.0395 17.3591 10.3828L17.538 11.7107C17.6079 12.2614 17.6728 12.8126 17.7324 13.3644C17.6403 13.1792 17.5479 13.0295 17.3393 12.9608C17.2115 12.9187 17.0731 12.9107 16.9401 12.8967Z" fill="#E2483D"/>
<path id="Vector_51" d="M17.1859 17.0691L17.1746 17.041C17.2503 16.6386 17.2983 16.1158 17.2105 15.7135C17.1706 15.5302 17.0846 15.3656 17.0668 15.1757C17.0399 14.8897 17.1708 13.9448 17.2948 13.6981C17.3143 13.6593 17.3317 13.6406 17.3728 13.6273C17.5764 14.4382 17.9659 15.9506 17.5155 16.7087C17.4317 16.8499 17.3229 16.9775 17.1859 17.0691Z" fill="url(#paint16_linear_2005_103)"/>
<path id="Vector_52" d="M14.7898 17.6605L14.7962 17.6625C14.8428 17.7147 14.8375 17.8596 14.8418 17.9282C14.6445 17.9731 14.4465 18.0143 14.2477 18.0517C14.0489 18.0892 13.8495 18.1229 13.6495 18.1529C13.4494 18.1829 13.2489 18.2091 13.0479 18.2316C12.8468 18.2541 12.6455 18.2728 12.4437 18.2877C12.242 18.3026 12.0401 18.3137 11.8379 18.321C11.6358 18.3284 11.4335 18.3319 11.2313 18.3316C11.029 18.3314 10.8268 18.3274 10.6246 18.3195C10.4225 18.3117 10.2206 18.3 10.0189 18.2846C9.62673 18.2545 9.22858 18.2163 8.84075 18.149L8.80987 18.1368C8.7742 18.0804 8.81205 17.9618 8.82372 17.8993C9.1732 17.9409 9.51947 17.9981 9.87034 18.0307C10.1522 18.0568 10.4345 18.0749 10.7174 18.0847C11.0003 18.0946 11.2832 18.0963 11.5662 18.0898C11.8492 18.0833 12.1317 18.0687 12.4139 18.0459C12.696 18.0231 12.9772 17.9922 13.2576 17.9531C13.7736 17.8782 14.2792 17.7628 14.7898 17.6605Z" fill="#F1AC3D"/>
<path id="Vector_53" d="M17.8677 3.60657C17.9581 3.62736 18.0315 3.67144 18.0947 3.73899C18.4746 4.14508 18.4607 5.4957 18.4401 6.03716C18.4219 6.51532 18.3341 7.00008 18.2241 7.46487C17.9388 8.67029 17.5893 9.37973 16.6815 10.2235L16.5427 10.3396L16.5403 10.0197C17.0218 9.6528 17.3804 9.14557 17.6298 8.59843C18.1829 7.38531 18.3707 5.82142 18.126 4.51127C18.0679 4.20028 17.9779 3.90266 17.8677 3.60657Z" fill="url(#paint17_linear_2005_103)"/>
<path id="Vector_54" d="M16.6042 13.0259C16.7663 13.0291 16.9754 13.0192 17.117 13.1062C17.2889 13.2118 17.3285 13.4462 17.3727 13.6273C17.3316 13.6406 17.3142 13.6593 17.2947 13.6981C17.1707 13.9449 17.0398 14.8897 17.0667 15.1757C17.0845 15.3656 17.1705 15.5302 17.2104 15.7135C17.2982 16.1159 17.2502 16.6386 17.1745 17.041L17.1858 17.0692C17.1544 17.0928 17.1104 17.1082 17.0747 17.125C17.0473 16.7892 17.2066 16.3103 17.0685 16.0067C16.9964 15.8483 16.8589 15.7715 16.7047 15.7122C16.6706 15.3795 16.6742 15.0397 16.6635 14.7053L16.6042 13.0259Z" fill="#E2483D"/>
<path id="Vector_55" d="M17.6298 17.7608C17.637 17.7067 17.6424 17.6602 17.6724 17.6135C17.709 17.9359 17.7136 18.2625 17.7246 18.5866C17.7466 19.2376 17.8195 20.6655 17.4108 21.1865C16.9582 21.7635 15.1497 21.9633 14.4505 22.0411C14.0522 22.0879 13.6531 22.1263 13.2533 22.1565C12.8534 22.1867 12.4531 22.2086 12.0523 22.2222C11.6515 22.2358 11.2506 22.2411 10.8496 22.238C10.4486 22.2349 10.0478 22.2235 9.64731 22.2038C9.25854 22.1829 8.86164 22.1769 8.47705 22.1141C8.53038 22.0786 8.63938 22.0852 8.70291 22.0852C8.92065 22.0852 9.13503 22.1147 9.35198 22.1246C9.75195 22.1418 10.1521 22.1479 10.5524 22.1428C11.5668 22.1359 12.5793 22.0891 13.59 22.0024C14.35 21.9375 15.1339 21.8578 15.8755 21.6742L15.9057 21.6709C15.966 21.6705 16.0271 21.6607 16.087 21.6537C16.108 21.6505 16.129 21.6469 16.1499 21.6429C16.1708 21.6389 16.1916 21.6344 16.2124 21.6296C16.2331 21.6247 16.2537 21.6194 16.2742 21.6137C16.2948 21.6081 16.3152 21.602 16.3354 21.5955C16.3557 21.589 16.3758 21.5821 16.3958 21.5748C16.4158 21.5675 16.4357 21.5598 16.4554 21.5517C16.4751 21.5436 16.4946 21.5351 16.514 21.5263C16.5333 21.5174 16.5525 21.5082 16.5715 21.4985C16.5905 21.4889 16.6093 21.4789 16.6278 21.4685C16.6464 21.4581 16.6648 21.4474 16.683 21.4363C16.7011 21.4252 16.719 21.4137 16.7367 21.4019C16.7545 21.39 16.7719 21.3779 16.7891 21.3653C16.8063 21.3528 16.8233 21.3399 16.84 21.3267C16.8567 21.3135 16.8732 21.3 16.8893 21.2862C16.9055 21.2723 16.9214 21.2581 16.937 21.2436C16.9526 21.2292 16.9679 21.2144 16.9829 21.1993C17.5655 20.6145 17.5838 19.6945 17.6089 18.921C17.6239 18.5344 17.6309 18.1477 17.6298 17.7608Z" fill="#E2483D"/>
<path id="Vector_56" d="M5.70743 10.3125C5.8315 10.4031 5.92683 10.5241 6.0454 10.6205C6.21391 10.7574 6.40541 10.8684 6.56777 11.0126C6.59986 10.9773 6.63143 10.9321 6.68045 10.9227C6.67033 10.9447 6.63072 11.0133 6.63643 11.0343C6.64381 11.0613 6.66834 11.0809 6.6876 11.1002C6.69609 11.2756 6.71199 11.4573 6.69478 11.6326L6.68931 11.6529C6.57842 11.7806 6.4926 11.9337 6.39637 12.0729C6.27034 12.2551 6.13066 12.4289 6.0009 12.6087C5.86961 12.7907 5.74342 12.9922 5.59302 13.1586C5.5942 13.112 5.60403 13.065 5.61129 13.0191C5.60579 12.6688 5.65862 12.3088 5.67697 11.9583C5.70061 11.41 5.71076 10.8614 5.70743 10.3125Z" fill="#E2483D"/>
<path id="Vector_57" d="M8.39161 10.7856C8.87049 10.9608 9.37236 11.0598 9.87612 11.1314C11.6774 11.3871 13.44 11.1237 15.1304 10.472C15.1335 10.5689 15.1371 10.6657 15.1359 10.7627L15.1129 10.7689C14.9397 10.8163 14.7746 10.8891 14.6051 10.9478C14.374 11.026 14.1401 11.0948 13.9034 11.1541C13.8474 11.1684 13.7913 11.1822 13.7351 11.1955C13.6789 11.2089 13.6225 11.2218 13.5661 11.2342C13.5097 11.2466 13.4532 11.2585 13.3965 11.27C13.3399 11.2814 13.2832 11.2924 13.2264 11.3029C13.1696 11.3135 13.1127 11.3235 13.0557 11.3331C12.9987 11.3427 12.9416 11.3518 12.8845 11.3605C12.8274 11.3691 12.7702 11.3772 12.7129 11.3849C12.6557 11.3926 12.5983 11.3998 12.541 11.4066C12.4836 11.4133 12.4261 11.4195 12.3686 11.4253C12.3111 11.4311 12.2536 11.4364 12.1961 11.4412C12.1385 11.446 12.0809 11.4504 12.0232 11.4543C11.9656 11.4581 11.9079 11.4615 11.8502 11.4644C11.7925 11.4673 11.7347 11.4698 11.677 11.4717C11.6193 11.4737 11.5615 11.4752 11.5037 11.4762C11.446 11.4772 11.3882 11.4777 11.3304 11.4777C11.2726 11.4777 11.2149 11.4773 11.1571 11.4764C11.0993 11.4755 11.0416 11.4741 10.9838 11.4722C10.9261 11.4703 10.8683 11.4679 10.8106 11.4651C10.7529 11.4623 10.6952 11.4589 10.6376 11.4551C10.5799 11.4513 10.5223 11.4471 10.4647 11.4423C10.4071 11.4376 10.3496 11.4323 10.2921 11.4266C10.2346 11.4209 10.1772 11.4147 10.1198 11.4081C10.0624 11.4014 10.005 11.3943 9.94777 11.3867C9.89049 11.3791 9.83328 11.371 9.77614 11.3624C9.71899 11.3538 9.66193 11.3448 9.60495 11.3353C9.54796 11.3258 9.49106 11.3158 9.43423 11.3053C9.3774 11.2949 9.32067 11.284 9.26401 11.2726C9.20738 11.2612 9.15083 11.2493 9.09437 11.237C9.03793 11.2246 8.9816 11.2118 8.92537 11.1986C8.86914 11.1853 8.81301 11.1716 8.75699 11.1574C8.70099 11.1432 8.64511 11.1285 8.58935 11.1134C8.53359 11.0982 8.47796 11.0826 8.42244 11.0666C8.39745 10.9752 8.39132 10.8799 8.39161 10.7856Z" fill="url(#paint18_linear_2005_103)"/>
<path id="Vector_58" d="M5.30601 3.70092C5.34315 3.70134 5.35958 3.69696 5.39104 3.71788C5.37761 3.81647 5.28012 3.94871 5.23635 4.04233C5.07691 4.38355 4.98807 4.75327 4.92817 5.12383C4.91692 5.19362 4.90678 5.26358 4.89776 5.33371C4.88872 5.40383 4.88079 5.47408 4.87397 5.54445C4.86716 5.61483 4.86146 5.68529 4.85689 5.75583C4.8523 5.8264 4.84883 5.89701 4.84648 5.96766C4.84413 6.03833 4.84291 6.10901 4.8428 6.17972C4.84268 6.25041 4.84368 6.32109 4.8458 6.39176C4.84792 6.46242 4.85116 6.53304 4.85552 6.60361C4.85987 6.67419 4.86533 6.74467 4.87192 6.81506C4.87851 6.88545 4.8862 6.95572 4.895 7.02586C4.90381 7.09603 4.91373 7.16602 4.92475 7.23585C4.93578 7.3057 4.9479 7.37534 4.96113 7.44478C4.97434 7.51424 4.98866 7.58348 5.00408 7.65248C5.0195 7.72147 5.03601 7.7902 5.0536 7.85868C5.07118 7.92716 5.08984 7.99534 5.10959 8.06323C5.12933 8.13113 5.15015 8.19869 5.17204 8.26591C5.19392 8.33314 5.21686 8.40001 5.24085 8.46651C5.46001 9.0737 5.80623 9.63203 6.28016 10.073C6.41324 10.1968 6.55646 10.3185 6.72205 10.3963C6.71527 10.4969 6.71248 10.5981 6.70799 10.6989L6.64554 10.6601C6.18025 10.3512 5.78877 9.96905 5.48372 9.4999C4.64843 8.21539 4.40482 6.41672 4.72328 4.93234C4.80994 4.52846 4.94405 3.93493 5.30601 3.70092Z" fill="url(#paint19_linear_2005_103)"/>
<path id="Vector_59" d="M13.1219 11.4893C13.8117 11.352 14.4767 11.1773 15.1287 10.9122C15.1416 11.1573 15.1379 11.4032 15.1421 11.6485L15.1629 12.8836C14.9453 12.8957 14.7181 12.9241 14.5007 12.9217C14.811 12.4817 14.8496 12.1887 14.8228 11.6629C14.2621 11.8574 13.7076 11.9606 13.119 12.0322C12.9297 12.0552 12.7345 12.0855 12.5437 12.0893L12.5247 12.1014L12.4797 12.0701C12.6668 11.8789 12.8597 11.6965 13.0552 11.5139L13.1219 11.4893Z" fill="url(#paint20_linear_2005_103)"/>
<path id="Vector_60" d="M19.4873 20.475C19.7307 20.4758 20.3496 19.3862 20.4787 19.1718C20.7084 18.79 20.9428 18.4171 21.1399 18.0166C21.2246 17.8444 21.405 17.2952 21.4966 17.2067C21.4961 17.2532 21.4939 17.299 21.5034 17.3448C21.5074 17.3833 21.507 17.4301 21.517 17.467C21.5639 17.7934 21.6187 18.4619 21.5227 18.7666C21.4775 18.9099 21.393 19.0398 21.3035 19.159C20.9763 19.595 20.3232 20.289 19.8568 20.5889C19.7921 20.6251 19.7201 20.6589 19.6601 20.702C19.593 20.7255 19.5216 20.7559 19.4521 20.7697C19.3525 20.7881 19.2775 20.7835 19.1858 20.7376C19.2886 20.6534 19.388 20.5635 19.4873 20.475Z" fill="#E98F2F"/>
<path id="Vector_61" d="M5.3958 9.69006C5.45297 9.73898 5.49116 9.80193 5.53182 9.8643C5.53953 11.184 5.50988 12.5029 5.44285 13.8209C5.41404 14.5042 5.35519 15.1852 5.34218 15.8694C5.32478 16.7852 5.37959 17.7014 5.39399 18.6171C5.41207 19.7662 5.38863 20.9294 5.57871 22.0656C5.52538 22.0693 5.48414 22.0398 5.43959 22.0147C5.34673 21.6859 5.34941 21.2997 5.33582 20.9601C5.3191 20.5377 5.30475 20.1151 5.29274 19.6924C5.24136 18.0718 5.19786 16.4562 5.21302 14.8345C5.22388 13.6733 5.27605 12.5147 5.31755 11.3544C5.33083 10.9836 5.33927 10.6127 5.35572 10.2421C5.36368 10.0624 5.36155 9.86633 5.3958 9.69006Z" fill="url(#paint21_linear_2005_103)"/>
<path id="Vector_62" d="M7.3125 19.097C7.40305 18.9773 7.4962 18.8437 7.63485 18.7756C7.87469 18.6579 8.17255 18.797 8.40393 18.8728C8.40112 19.229 8.46954 19.5801 8.47103 19.9357C8.47274 20.3472 8.22346 21.2899 7.9951 21.6367C7.69155 21.2488 7.38983 20.4547 7.3334 19.9635C7.30083 19.6801 7.31828 19.3826 7.3125 19.097Z" fill="#71463E"/>
<path id="Vector_63" d="M7.7817 19.1733C7.80959 19.172 7.83819 19.1716 7.86599 19.1749C7.9132 19.1804 7.96356 19.2057 7.99221 19.2445C8.01195 19.2711 8.01863 19.3046 8.012 19.337C7.99949 19.3982 7.94989 19.4342 7.90256 19.469C7.89204 19.47 7.88155 19.471 7.87104 19.4716C7.80898 19.4749 7.74995 19.4683 7.70343 19.4225C7.6752 19.3947 7.666 19.3627 7.66831 19.3239C7.67244 19.2537 7.73042 19.2114 7.7817 19.1733Z" fill="#581E1C"/>
<path id="Vector_64" d="M8.33411 18.3432C8.23481 18.3687 8.13222 18.3906 8.03111 18.4072C7.80154 18.4449 7.12559 18.4733 6.94317 18.3259C6.77127 18.187 6.56959 16.6071 6.55808 16.3386C6.55374 16.238 6.55025 16.1538 6.62413 16.0771C6.83065 15.8626 7.39298 15.7878 7.67619 15.7788C8.00756 15.7683 8.4392 15.7776 8.69631 16.018C8.83244 16.4733 8.78278 16.9418 8.74785 17.4074L8.73221 17.4041C8.67386 17.3513 8.6747 17.0733 8.65951 16.9859C8.63402 16.8391 8.58938 16.5837 8.46025 16.492C8.44472 16.4255 8.42937 16.3889 8.37036 16.3511C8.25773 16.2791 8.08252 16.2592 7.95259 16.2887C7.89324 16.3023 7.83003 16.3308 7.79804 16.3853C7.71619 16.5247 7.8293 17.0292 7.6591 17.0806C7.62139 17.092 7.57397 17.0754 7.54177 17.055C7.48952 17.0219 7.46313 16.9641 7.45151 16.9053C7.42226 16.7572 7.45908 16.4944 7.32726 16.394C7.2492 16.3345 7.13068 16.343 7.03887 16.3593C6.97692 16.3703 6.9044 16.3901 6.86774 16.4457C6.7586 16.6113 6.91615 17.5813 6.9776 17.7849C7.00363 17.8712 7.0379 17.9491 7.12146 17.992C7.35171 18.1101 7.97562 18.0444 8.21481 17.9613C8.2587 17.946 8.30289 17.9268 8.34334 17.9041C8.44926 17.8847 8.54809 17.9415 8.65365 17.9491C8.67297 17.9505 8.66393 17.9493 8.68677 17.9563L8.67229 18.0288C8.64435 18.0519 8.62403 18.0735 8.60153 18.102C8.52331 18.2011 8.3928 18.2685 8.33411 18.3432Z" fill="#B5B5B5"/>
<path id="Vector_65" d="M4.12512 21.4747C4.05468 21.3388 4.03986 21.1971 4.01807 21.0479C4.34044 21.3756 4.65612 21.7281 5.04697 21.976C6.21212 22.715 8.31518 22.6772 9.67085 22.6883C9.95435 22.6906 10.2415 22.6776 10.5231 22.7158C11.0866 22.8613 11.6874 22.9587 12.2658 23.0276C12.4042 23.044 12.8654 23.0615 12.9674 23.1239L11.4159 23.1231C11.2402 23.1244 10.2365 23.1818 10.1457 23.1351C10.0909 23.0933 9.20091 23.0626 9.05572 23.0522C8.15603 22.9879 7.24807 22.8922 6.36717 22.6943C5.79688 22.5662 5.12564 22.3917 4.64902 22.0394C4.50619 21.9338 4.37269 21.802 4.27037 21.6565C4.23328 21.6038 4.1851 21.495 4.12512 21.4747Z" fill="url(#paint22_linear_2005_103)"/>
<path id="Vector_66" d="M15.2617 18.5868C15.6558 18.6225 16.046 18.6165 16.441 18.6013C16.4419 19.1351 16.5488 19.8043 16.3713 20.3148C16.2859 20.5603 16.1503 20.7917 16.0445 21.0296C15.9734 21.1842 15.9176 21.3461 15.8588 21.5058C15.782 21.3373 15.7154 21.1633 15.6423 20.9931C15.5281 20.7278 15.3916 20.4573 15.3328 20.1733C15.2841 19.9376 15.292 19.6913 15.2863 19.4518L15.2617 18.5868Z" fill="#71463E"/>
<path id="Vector_67" d="M15.835 19.0965C15.8468 19.0965 15.8524 19.0961 15.8635 19.0972C15.9168 19.1022 15.9747 19.1261 16.0074 19.17C16.0363 19.2088 16.0415 19.2553 16.0317 19.3019C16.0158 19.3782 15.9684 19.4158 15.9067 19.4575C15.8878 19.458 15.8696 19.4582 15.8508 19.4555C15.8047 19.4487 15.761 19.4289 15.7332 19.3901C15.7081 19.3552 15.7036 19.3138 15.7103 19.2722C15.7237 19.1882 15.7714 19.1464 15.835 19.0965Z" fill="#581E1C"/>
<path id="Vector_68" d="M8.3432 17.904C8.30275 17.9268 8.25857 17.946 8.21467 17.9612C7.97549 18.0444 7.35158 18.1101 7.12133 17.9919C7.03777 17.949 7.00349 17.8712 6.97747 17.7849C6.91602 17.5812 6.75847 16.6113 6.8676 16.4457C6.90427 16.3901 6.97679 16.3703 7.03874 16.3593C7.13055 16.3429 7.24907 16.3344 7.32713 16.3939C7.45895 16.4944 7.42212 16.7571 7.45138 16.9052C7.463 16.964 7.48938 17.0219 7.54164 17.055C7.57384 17.0754 7.62125 17.092 7.65897 17.0806C7.82916 17.0292 7.71606 16.5246 7.79791 16.3853C7.8299 16.3308 7.89311 16.3022 7.95246 16.2887C8.08239 16.2591 8.2576 16.279 8.37023 16.3511C8.42923 16.3889 8.44458 16.4255 8.46012 16.492C8.58925 16.5836 8.63388 16.8391 8.65938 16.9858C8.67457 17.0733 8.67373 17.3513 8.73208 17.404L8.74772 17.4073C8.73521 17.5907 8.72149 17.7756 8.68664 17.9562C8.66379 17.9493 8.67284 17.9505 8.65352 17.9491C8.54796 17.9414 8.44913 17.8847 8.3432 17.904Z" fill="url(#paint23_linear_2005_103)"/>
<path id="Vector_69" d="M7.8584 16.484C7.91431 16.4195 7.96656 16.3827 8.05387 16.3747C8.1517 16.3658 8.23206 16.4083 8.30321 16.4707C8.18225 16.528 7.98627 16.504 7.8584 16.484Z" fill="#A5675C"/>
<path id="Vector_70" d="M8.46017 16.4919C8.58931 16.5836 8.63394 16.8391 8.65944 16.9858C8.67463 17.0732 8.67379 17.3512 8.73214 17.404L8.74778 17.4073C8.73527 17.5906 8.72155 17.7756 8.68669 17.9562C8.66385 17.9492 8.67289 17.9504 8.65357 17.949C8.54802 17.9414 8.44919 17.8847 8.34326 17.904C8.38361 17.8724 8.42159 17.8381 8.46002 17.8042C8.54363 17.4367 8.48407 16.872 8.46017 16.4919Z" fill="#DED5CD"/>
<path id="Vector_71" d="M6.9104 16.4964C7.02124 16.4736 7.16344 16.437 7.26653 16.5034C7.30958 16.5312 7.33126 16.5765 7.34083 16.6256C7.37521 16.8023 7.30445 17.0462 7.47706 17.1672C7.53802 17.21 7.60946 17.2267 7.68234 17.2096C7.73954 17.1962 7.793 17.1766 7.82318 17.123C7.89493 16.9957 7.86113 16.6395 7.85866 16.484C7.98653 16.504 8.18251 16.5279 8.30347 16.4707C8.44283 16.6824 8.3701 17.4799 8.33914 17.7486C8.07172 17.8868 7.83419 17.9451 7.53213 17.945C7.43406 17.945 7.32829 17.9439 7.23446 17.9121C7.16428 17.8884 7.11613 17.8502 7.08359 17.7834C6.95521 17.5201 6.91303 16.7977 6.9104 16.4964Z" fill="#71463E"/>
<path id="Vector_72" d="M16.9102 18.1707C17.122 18.1602 17.4222 17.9391 17.614 17.8347C17.6212 17.8096 17.6253 17.7864 17.6298 17.7607C17.6308 18.1476 17.6239 18.5344 17.6088 18.921C17.5837 19.6944 17.5654 20.6145 16.9828 21.1992C16.9678 21.2143 16.9525 21.2291 16.9369 21.2436C16.9213 21.2581 16.9054 21.2722 16.8892 21.2861C16.8731 21.3 16.8567 21.3135 16.8399 21.3267C16.8232 21.3399 16.8063 21.3527 16.789 21.3653C16.7718 21.3778 16.7544 21.39 16.7367 21.4018C16.719 21.4136 16.701 21.4251 16.6829 21.4362C16.6647 21.4473 16.6463 21.4581 16.6278 21.4685C16.6092 21.4788 16.5904 21.4888 16.5714 21.4985C16.5524 21.5081 16.5332 21.5173 16.5139 21.5262C16.4945 21.5351 16.475 21.5436 16.4553 21.5517C16.4356 21.5597 16.4158 21.5674 16.3958 21.5747C16.3758 21.582 16.3556 21.5889 16.3354 21.5954C16.3151 21.6019 16.2947 21.608 16.2742 21.6137C16.2536 21.6194 16.233 21.6246 16.2123 21.6295C16.1916 21.6344 16.1707 21.6388 16.1498 21.6428C16.1289 21.6469 16.108 21.6505 16.0869 21.6537C16.0927 21.5113 16.4517 20.9248 16.5353 20.752C16.6468 20.5216 16.7488 20.2732 16.7869 20.0189C16.812 19.8521 16.8126 19.6742 16.7943 19.5067C16.7769 19.3477 16.6253 18.8054 16.6733 18.6914C16.7013 18.6249 16.7907 18.6076 16.8448 18.5661C16.8644 18.551 16.8794 18.5317 16.8917 18.5104C16.9552 18.4003 16.9264 18.2946 16.8985 18.1808L16.9102 18.1707Z" fill="#E98F2F"/>
<path id="Vector_73" d="M12.5437 12.0893C12.7344 12.0855 12.9296 12.0552 13.1189 12.0322C13.7076 11.9606 14.262 11.8573 14.8227 11.6628C14.8495 12.1887 14.8109 12.4817 14.5007 12.9217C14.1381 12.9832 13.7573 12.9813 13.3906 13.0086C12.7571 13.0558 12.1212 13.1194 11.4861 13.1358C11.6066 13.0014 11.7456 12.8806 11.8742 12.7539L12.5247 12.1014L12.5437 12.0893Z" fill="#E2483D"/>
<path id="Vector_74" d="M8.65402 3.41665C9.16486 3.40913 9.67438 3.37712 10.1848 3.35822C11.6957 3.30221 13.211 3.2346 14.7229 3.25789C14.8164 3.77514 14.8503 4.30619 14.8938 4.82962C14.5845 4.87018 14.2759 4.91531 13.968 4.96501C13.9744 4.51667 13.9941 3.97727 13.6577 3.63008C13.3492 3.31164 12.8062 3.35972 12.3981 3.3563C12.2254 3.35485 12.0531 3.35662 11.8804 3.3527C11.7455 3.34965 11.6063 3.33932 11.4717 3.34547C11.3223 3.35228 11.1677 3.38124 11.0192 3.40035C10.4348 3.4756 9.6155 3.60135 9.17942 4.03005C8.80944 4.39372 8.53115 5.22199 8.53199 5.7461C8.53207 5.79391 8.53893 5.83967 8.5522 5.88543L8.36792 5.93398C8.37696 5.63999 8.40553 5.34658 8.43187 5.05377C8.48147 4.50248 8.54274 3.95947 8.65402 3.41665Z" fill="url(#paint24_linear_2005_103)"/>
<path id="Vector_75" d="M6.59762 13.3746C6.60095 13.3739 6.60427 13.3729 6.60766 13.3724C6.64511 13.3677 6.6613 13.3647 6.69074 13.388C6.73335 13.5458 6.72533 14.1216 6.73519 14.3236C6.76055 14.8421 6.80729 15.3589 6.83478 15.877C6.72612 15.9178 6.58416 15.9754 6.51682 16.0742C6.35251 16.3154 6.58802 17.4505 6.64375 17.7452C6.52825 17.7068 6.42619 17.6536 6.32334 17.5889C6.17502 17.471 6.06376 17.347 5.97694 17.1773C5.52506 16.294 5.74593 14.3806 6.04951 13.4512C6.23116 13.4149 6.4136 13.3938 6.59762 13.3746Z" fill="#E2483D"/>
<path id="Vector_76" d="M7.98092 12.0515C7.97992 12.7835 8.00477 13.5147 8.05549 14.2449C8.08944 14.7382 8.14409 15.2294 8.1826 15.7222C7.76165 15.6794 7.35611 15.7149 6.94836 15.8311C6.90694 15.3426 6.89477 14.8511 6.87364 14.3614C6.85802 13.9994 6.82648 13.6306 6.84123 13.2688C6.95423 13.2378 7.39265 12.7145 7.47316 12.5893C7.71408 12.4806 7.82713 12.252 7.98092 12.0515Z" fill="#71463E"/>
<path id="Vector_77" d="M20.8403 12.2266C20.9748 12.3814 21.0686 12.5629 21.142 12.7535C21.3985 13.4196 21.6461 14.9438 21.595 15.6597C21.5844 15.808 21.5573 16.0342 21.4355 16.1345C21.4303 16.1388 21.4249 16.1429 21.4193 16.1467C21.4137 16.1505 21.4079 16.154 21.4019 16.1572C21.3959 16.1604 21.3898 16.1632 21.3835 16.1658C21.3772 16.1684 21.3708 16.1706 21.3643 16.1725C21.3578 16.1744 21.3513 16.176 21.3446 16.1772C21.3379 16.1785 21.3312 16.1794 21.3245 16.1799C21.3177 16.1805 21.3109 16.1807 21.3042 16.1805C21.2974 16.1804 21.2906 16.1799 21.2839 16.179C21.1503 16.1621 21.0388 16.05 20.9629 15.9462C20.8078 15.7344 20.7254 15.4784 20.6514 15.2294C20.5816 14.9944 20.5156 14.7583 20.4534 14.5211C20.3308 14.0537 20.236 13.5339 19.8604 13.1947C19.9685 13.0084 20.646 12.3813 20.8403 12.2266Z" fill="#E2483D"/>
<path id="Vector_78" d="M21.033 14.3528C21.0571 14.3569 21.0827 14.3621 21.1054 14.3714C21.1639 14.3954 21.1871 14.4608 21.2075 14.5154C21.2736 14.6935 21.4498 15.3962 21.4577 15.5727C21.4612 15.6502 21.4503 15.7347 21.416 15.805C21.395 15.8478 21.3676 15.878 21.3199 15.8912C21.2845 15.901 21.232 15.8911 21.201 15.8722C21.1188 15.822 21.0968 15.6863 21.0788 15.5986C21.0763 15.5452 21.0689 15.4954 21.0583 15.443H21.0513L21.0511 15.4198L21.0519 15.4418L21.0463 15.4388C21.0456 15.5764 21.0686 15.6907 21.1041 15.8232C21.0833 15.7893 21.0631 15.7552 21.0465 15.7191C20.9897 15.5956 20.9941 15.4661 21.0418 15.3414C20.9543 15.1613 20.8605 14.9719 20.8105 14.7775C20.7851 14.6791 20.7695 14.5675 20.8264 14.4768C20.8737 14.4015 20.95 14.3719 21.033 14.3528Z" fill="url(#paint25_linear_2005_103)"/>
<path id="Vector_79" d="M21.2272 15.3119C21.2471 15.315 21.2686 15.3188 21.2871 15.3271C21.336 15.349 21.3677 15.4095 21.3811 15.4586C21.4127 15.5744 21.3889 15.6919 21.3284 15.7926C21.2987 15.8139 21.2862 15.8239 21.2499 15.8191C21.2231 15.789 21.2146 15.7537 21.2068 15.7151C21.1826 15.5964 21.1591 15.4158 21.2272 15.3119Z" fill="#E3822B"/>
<path id="Vector_80" d="M21.0006 14.3995C21.0295 14.4001 21.0544 14.4028 21.0788 14.4201C21.2132 14.5156 21.3078 15.068 21.331 15.2306C21.2627 15.232 21.2077 15.2337 21.1478 15.2696C21.1228 15.2876 21.1057 15.2996 21.0755 15.3078C21.0703 15.3029 21.0646 15.2984 21.06 15.293C20.9726 15.1911 20.8195 14.6722 20.8293 14.5378C20.8665 14.4627 20.9298 14.437 21.0006 14.3995Z" fill="url(#paint26_linear_2005_103)"/>
<path id="Vector_81" d="M17.906 9.58496C18.0309 10.3535 18.134 11.1249 18.2152 11.8993C18.2689 12.3685 18.3362 12.8427 18.357 13.3148C18.3655 13.5087 18.3178 13.6929 18.2979 13.8842C18.2759 14.0963 18.2884 14.3213 18.3021 14.5339C18.3209 14.8243 18.3695 15.1104 18.3948 15.4001L18.5727 17.62C18.6391 18.4552 18.7098 19.2889 18.7016 20.1276C18.7006 20.4294 18.6797 20.7299 18.6389 21.029C18.6049 21.2734 18.5506 21.5196 18.5372 21.7661C18.4626 21.7956 18.3884 21.8268 18.3117 21.8504C18.5046 20.4877 18.461 19.1303 18.3268 17.7651C18.2925 17.4159 18.2224 17.0695 18.1949 16.7202C18.1763 16.483 18.2091 16.2427 18.2079 16.0046C18.2061 15.6831 18.1678 15.3623 18.1369 15.0426C18.1088 14.7519 18.0883 14.4592 18.0414 14.1708C18.0003 13.9176 17.9178 13.6777 17.9111 13.4194C18.0364 13.1904 17.5446 10.4771 17.4766 10.0573C17.6298 9.94895 17.7277 9.72298 17.906 9.58496Z" fill="url(#paint27_linear_2005_103)"/>
<path id="Vector_82" d="M2.08006 14.9251C2.09865 14.6832 2.14898 14.448 2.18428 14.2085C2.26155 13.6841 2.35404 12.6939 2.7736 12.3435C2.89414 12.2428 3.0427 12.197 3.19888 12.2168C3.59041 12.2665 4.01317 12.6758 4.29594 12.9385C3.96956 13.008 3.715 13.1518 3.52959 13.4363C3.33842 13.7297 3.25652 14.0905 3.18684 14.4297C3.10307 14.8376 3.03161 16.0408 2.5537 16.1591C2.47468 16.1787 2.40974 16.1591 2.34023 16.1211C2.3275 16.1094 2.31514 16.0974 2.30312 16.085C2.07283 15.8462 2.06635 15.4595 2.06804 15.15L2.08006 14.9251Z" fill="#E2483D"/>
<path id="Vector_83" d="M2.40747 15.0325C2.43338 14.8305 2.43959 14.5726 2.55064 14.3972L2.56625 14.3881L2.57375 14.4252C2.6255 14.3997 2.6565 14.3467 2.72367 14.3686C2.76544 14.3822 2.79721 14.4229 2.81059 14.4631C2.85501 14.597 2.77895 14.8614 2.71247 14.9826C2.68414 15.0343 2.64928 15.0774 2.61056 15.1215C2.6634 14.9893 2.83893 14.6097 2.76283 14.4704C2.74612 14.4398 2.73439 14.4362 2.70417 14.4223C2.66377 14.4262 2.64163 14.4336 2.61579 14.4665C2.53848 14.5651 2.44856 14.8517 2.4634 14.9785C2.46781 15.0162 2.49863 15.0376 2.52859 15.0565C2.53343 15.0596 2.53845 15.0623 2.54337 15.0653L2.5303 15.0645C2.49876 15.0628 2.47364 15.0616 2.44295 15.0712L2.40747 15.0325Z" fill="#581E1C"/>
<path id="Vector_84" d="M2.40749 15.0325L2.44296 15.0711L2.4354 15.1674C2.50782 15.1952 2.61307 15.2211 2.66828 15.2775C2.72792 15.3384 2.74406 15.431 2.73883 15.513C2.73031 15.6463 2.67837 15.7619 2.57477 15.8469C2.52936 15.8841 2.46685 15.9237 2.40506 15.9098C2.36019 15.8997 2.32732 15.8628 2.30561 15.8244C2.15201 15.5527 2.33884 15.2937 2.40749 15.0325Z" fill="url(#paint28_linear_2005_103)"/>
<path id="Vector_85" d="M2.42172 15.2919C2.4547 15.2936 2.49074 15.2955 2.51971 15.313C2.55021 15.3313 2.56934 15.3608 2.57794 15.3949C2.60975 15.5213 2.52668 15.6855 2.46684 15.7941C2.43896 15.8167 2.4194 15.8189 2.38405 15.818C2.35829 15.7973 2.35012 15.7769 2.34333 15.7454C2.30902 15.5865 2.33315 15.4277 2.42172 15.2919Z" fill="#E3822B"/>
<path id="Vector_86" d="M10.5229 22.7158C10.9636 22.6922 11.4091 22.7284 11.8505 22.7227C12.7358 22.7118 13.6203 22.6802 14.504 22.6277C15.716 22.5543 16.908 22.4579 18.0732 22.0914C18.4367 21.977 18.8099 21.8359 19.1403 21.6443C19.2477 21.5816 19.3507 21.5125 19.4495 21.4369C19.5482 21.3614 19.6419 21.28 19.7305 21.1928C19.866 21.0577 19.9886 20.9148 20.139 20.7952C19.7978 21.6329 19.4342 22.1053 18.5828 22.4637C17.648 22.8573 16.606 23.0593 15.596 23.114C15.0124 23.1457 14.4287 23.1332 13.8447 23.1344C13.6997 23.1347 13.0613 23.1591 12.9673 23.1239C12.8652 23.0615 12.4041 23.044 12.2656 23.0275C11.6873 22.9587 11.0864 22.8612 10.5229 22.7158Z" fill="url(#paint29_linear_2005_103)"/>
<path id="Vector_87" d="M6.89662 6.51379L6.91862 6.514C6.96561 6.57606 6.88216 7.57297 6.87438 7.7296C6.76688 7.78136 6.68245 7.83014 6.62203 7.9388C6.52086 8.12079 6.52041 8.42834 6.58218 8.62374C6.62097 8.74651 6.67909 8.81562 6.79072 8.87368C6.77271 9.34062 6.76772 9.80475 6.731 10.2711C6.44214 10.0824 6.20361 9.83784 5.98453 9.57397C5.89145 9.47399 5.8074 9.33812 5.73606 9.2226C5.29191 8.50333 5.12011 7.67871 4.9939 6.85386C5.63105 6.76581 6.26472 6.63307 6.89662 6.51379Z" fill="#F1AC3D"/>
<path id="Vector_88" d="M4.31427 13.5507C4.37575 13.5954 4.43273 13.6504 4.48559 13.705C4.64264 13.867 4.70241 14.0237 4.6981 14.25C4.62556 14.3678 4.65308 14.6753 4.65379 14.8187C4.65534 15.1407 4.65626 15.4615 4.67492 15.7831C4.7206 16.5705 4.81675 17.3542 4.86396 18.1416C4.89573 18.6712 4.88062 19.2035 4.92596 19.7325C4.95019 20.0155 5.01811 20.2908 5.04668 20.5723C4.93505 20.5096 4.84093 20.4374 4.75104 20.3459C4.52405 20.1149 4.31183 19.8048 4.23353 19.4867C4.17081 19.232 4.19181 18.965 4.19865 18.7053C4.20485 18.4688 4.20963 18.2311 4.1941 17.9948C4.16645 17.5745 4.10794 17.1572 4.06667 16.7382C4.02369 16.2802 3.98872 15.8216 3.96177 15.3624C3.94282 15.0807 3.91012 14.7951 3.91475 14.5127C3.92119 14.1192 4.03027 13.8264 4.31427 13.5507Z" fill="#E3822B"/>
<path id="Vector_89" d="M6.93781 8.73379C7.31026 8.6854 7.67532 8.68474 8.04598 8.75264C8.03295 9.83035 7.95959 10.9062 7.98477 11.9845L7.98093 12.0515C7.82714 12.252 7.71409 12.4806 7.47317 12.5893C7.39266 12.7145 6.95424 13.2377 6.84124 13.2688L6.83546 13.2315C6.79259 12.8968 6.81065 12.5335 6.8123 12.1949C6.81788 11.0405 6.92922 9.88867 6.93781 8.73379Z" fill="#71463E"/>
<path id="Vector_90" d="M7.28909 12.1185C7.37186 12.0721 7.4643 12.0247 7.562 12.0534C7.61838 12.0699 7.65736 12.1127 7.68362 12.1636C7.70504 12.2051 7.71637 12.2523 7.72738 12.2975C7.71802 12.3223 7.70806 12.3467 7.69616 12.3704C7.66598 12.4304 7.61378 12.4784 7.54836 12.4967C7.49224 12.5125 7.43221 12.5032 7.38193 12.4744C7.29787 12.4262 7.26896 12.3568 7.24512 12.2673C7.2575 12.2169 7.27353 12.1678 7.28909 12.1185Z" fill="url(#paint30_linear_2005_103)"/>
<path id="Vector_91" d="M7.44679 12.1246C7.4863 12.1314 7.51773 12.1412 7.54596 12.1715C7.57411 12.2017 7.58555 12.2395 7.58168 12.2803C7.57656 12.3343 7.54804 12.3609 7.5084 12.3942C7.45841 12.3785 7.40087 12.358 7.36776 12.315C7.35191 12.2944 7.34615 12.2715 7.34959 12.2464C7.3574 12.1894 7.40458 12.1576 7.44679 12.1246Z" fill="url(#paint31_linear_2005_103)"/>
<path id="Vector_92" d="M7.40634 9.47167C7.48569 9.46644 7.56433 9.47995 7.63567 9.51561C7.74325 9.56942 7.82071 9.6684 7.85475 9.78311C7.89446 9.917 7.87378 10.0667 7.80418 10.1872C7.73076 10.3144 7.62981 10.3683 7.49289 10.4026C7.39004 10.403 7.29571 10.3926 7.20489 10.3404C7.10049 10.2805 7.02829 10.1787 7.00101 10.0619C6.97157 9.93559 6.99354 9.7962 7.06346 9.68667C7.14357 9.56114 7.26608 9.50371 7.40634 9.47167Z" fill="url(#paint32_linear_2005_103)"/>
<path id="Vector_93" d="M7.37674 9.63081C7.43417 9.62714 7.48509 9.62761 7.53826 9.65297C7.61522 9.68967 7.67271 9.75992 7.69933 9.84025C7.72654 9.92228 7.7243 10.0122 7.68416 10.0896C7.64384 10.1674 7.5867 10.2007 7.50633 10.2276C7.46122 10.2354 7.41777 10.2396 7.37267 10.2285C7.3637 10.2264 7.35488 10.2237 7.3462 10.2207C7.33751 10.2176 7.329 10.214 7.32068 10.2101C7.31237 10.2061 7.3043 10.2017 7.29645 10.1968C7.2886 10.192 7.28102 10.1868 7.27374 10.1811C7.26645 10.1755 7.25947 10.1695 7.25281 10.1631C7.24615 10.1567 7.23986 10.15 7.23392 10.143C7.22797 10.1359 7.22242 10.1286 7.21725 10.1209C7.21208 10.1133 7.20733 10.1054 7.203 10.0973C7.15898 10.0164 7.14933 9.91087 7.17977 9.82377C7.21578 9.72081 7.28325 9.67589 7.37674 9.63081Z" fill="#AB928B"/>
<path id="Vector_94" d="M7.25384 9.94641C7.27718 9.95451 7.32026 9.96928 7.33761 9.98818C7.36247 10.0152 7.35756 10.0331 7.35703 10.0673C7.31963 10.0676 7.30188 10.068 7.26856 10.0482C7.24682 10.015 7.252 9.98418 7.25384 9.94641Z" fill="#581E1C"/>
<path id="Vector_95" d="M7.37796 9.78723C7.40564 9.7918 7.43652 9.79375 7.45968 9.81076C7.47361 9.82101 7.46919 9.829 7.4698 9.84448C7.4437 9.88417 7.40474 9.90478 7.3655 9.92956C7.32857 9.92649 7.31201 9.92867 7.28116 9.90714L7.28076 9.87794C7.3077 9.83633 7.33746 9.81512 7.37796 9.78723Z" fill="#581E1C"/>
<path id="Vector_96" d="M8.37419 3.33561L8.48927 3.33508C8.31889 4.18817 8.25641 5.056 8.19428 5.92214C8.15128 6.52158 8.10065 7.12342 8.09245 7.72456C7.78098 7.6716 7.48697 7.65102 7.17142 7.68296C7.11379 7.6894 7.05632 7.69712 6.99902 7.70611C7.07843 6.26284 7.21382 4.83542 7.4524 3.40942C7.7548 3.35162 8.06738 3.34636 8.37419 3.33561Z" fill="#71463E"/>
<path id="Vector_97" d="M7.8383 3.66511C7.85318 3.6645 7.86774 3.66398 7.88264 3.66456C7.93163 3.66642 7.97301 3.68098 8.00605 3.71875C8.02918 3.7452 8.03651 3.77082 8.03243 3.80594C8.02621 3.85932 7.98142 3.88669 7.94152 3.91489C7.93192 3.91662 7.92233 3.91852 7.91263 3.91962C7.86513 3.92496 7.80607 3.92064 7.77046 3.88456C7.7519 3.86576 7.74438 3.84127 7.74517 3.81532C7.74728 3.74575 7.79041 3.70984 7.8383 3.66511Z" fill="#581E1C"/>
<path id="Vector_98" d="M7.85168 3.73218C7.88454 3.73672 7.90012 3.74119 7.92649 3.76154C7.93385 3.79962 7.92749 3.81035 7.915 3.84615C7.88404 3.84365 7.86233 3.84407 7.83778 3.82241C7.82745 3.78869 7.84027 3.76367 7.85168 3.73218Z" fill="#A5675C"/>
<path id="Vector_99" d="M5.60059 3.64613C5.78001 3.6188 5.96021 3.59837 6.14121 3.58484L6.15829 3.60069C6.22009 3.65704 6.29271 3.70286 6.35685 3.75713C6.57889 3.94501 6.80594 4.18764 6.92666 4.45574C6.98612 4.5878 6.99356 4.80341 7.08844 4.90873C7.06883 5.32115 7.01545 5.73787 6.97873 6.14943C6.3089 6.23858 5.6402 6.37127 4.97547 6.49246C4.86955 5.50567 5.13247 4.50902 5.60059 3.64613Z" fill="#E2483D"/>
<path id="Vector_100" d="M3.729 12.2972C3.80351 11.233 3.92705 10.1745 4.09961 9.1217C4.21043 8.46057 4.38043 7.8037 4.46399 7.13892C4.45808 7.29073 4.52516 7.50348 4.57037 7.65015C4.548 8.05892 4.76129 8.6965 4.91874 9.07791C4.98616 9.24124 5.10862 9.41088 5.11611 9.59103C4.95665 10.8667 4.84675 12.1466 4.78642 13.4307C4.62178 13.003 4.3322 12.7783 3.98252 12.5058C3.90127 12.4424 3.79548 12.3753 3.729 12.2972Z" fill="url(#paint33_linear_2005_103)"/>
<path id="Vector_101" d="M14.863 3.20886C15.2483 3.22098 15.6268 3.24432 16.0088 3.29644C16.1707 4.48938 16.2388 5.70122 16.3127 6.90205C16.3188 7.00095 16.3726 7.52341 16.337 7.58457L16.3025 7.58699C15.9242 7.54412 15.5606 7.54273 15.186 7.619C15.1617 6.72916 15.113 5.84066 15.0399 4.95351C14.9897 4.37107 14.9308 3.78952 14.863 3.20886Z" fill="#71463E"/>
<path id="Vector_102" d="M15.3803 3.50294C15.3854 3.50286 15.3904 3.50262 15.3955 3.5027C15.4517 3.50357 15.5044 3.51668 15.5432 3.56076C15.5666 3.58747 15.5761 3.61985 15.5728 3.65483C15.5675 3.71311 15.5328 3.74152 15.4918 3.77821C15.438 3.78082 15.3837 3.77551 15.3406 3.73981C15.3146 3.71836 15.3003 3.68627 15.2996 3.65294C15.2982 3.58655 15.3367 3.5477 15.3803 3.50294Z" fill="#581E1C"/>
<path id="Vector_103" d="M15.3857 3.5675C15.4211 3.57539 15.4428 3.5792 15.4686 3.60727C15.4805 3.64786 15.467 3.67356 15.4524 3.71086C15.4229 3.69816 15.4033 3.685 15.3787 3.66512C15.367 3.6248 15.3756 3.60759 15.3857 3.5675Z" fill="#A5675C"/>
<path id="Vector_104" d="M15.7706 15.6859C16.0972 15.6541 16.5714 15.6795 16.8413 15.8879C16.9547 15.9755 16.9834 16.0557 16.9986 16.1924C17.0247 16.4265 16.9301 17.957 16.822 18.0788C16.6478 18.2748 16.301 18.2737 16.0598 18.2856C15.7505 18.2934 15.4282 18.2939 15.1214 18.2504C15.0484 18.1752 15.0105 18.0964 14.9822 17.9966C14.909 17.7383 14.9076 17.4523 14.8857 17.1861C14.8543 16.8041 14.8155 16.4257 14.8149 16.042C14.8315 16.019 14.8483 15.9954 14.8672 15.9742C15.0893 15.7269 15.4627 15.7109 15.7706 15.6859Z" fill="#B5B5B5"/>
<path id="Vector_105" d="M16.1322 16.1517C16.1764 16.1518 16.2205 16.1526 16.2646 16.154C16.3829 16.1585 16.59 16.1735 16.6704 16.2722C16.7696 16.394 16.6904 17.2619 16.6743 17.4729C16.667 17.5396 16.6621 17.609 16.6492 17.6748C16.6359 17.7427 16.608 17.7946 16.5489 17.8322C16.2494 18.0225 15.5014 17.9011 15.1586 17.8189L15.1558 17.8006C15.121 17.5699 14.986 16.41 15.0885 16.2848C15.1861 16.1656 15.4042 16.1668 15.5436 16.1583C15.6122 16.1553 15.6831 16.1623 15.7517 16.1656C15.7644 16.3493 15.7128 16.8075 15.7952 16.9474C15.8183 16.9866 15.8548 17.0146 15.8999 17.0231C15.9414 17.0309 16.0254 17.0294 16.0574 16.9971C16.1351 16.9187 16.1281 16.2987 16.1322 16.1517Z" fill="url(#paint34_linear_2005_103)"/>
<path id="Vector_106" d="M15.1703 16.4451C15.1656 16.4117 15.154 16.3693 15.1765 16.3406C15.2451 16.2535 15.445 16.2195 15.5527 16.2151C15.5935 16.2134 15.6312 16.2135 15.6626 16.2417C15.6619 16.3233 15.6474 16.4018 15.6366 16.4823L15.6334 16.3695C15.5549 16.3441 15.2602 16.4223 15.1703 16.4451Z" fill="#581E1C"/>
<path id="Vector_107" d="M16.2505 16.2367C16.3186 16.2409 16.3941 16.2412 16.4575 16.269C16.5145 16.2939 16.5396 16.3312 16.5616 16.3874L16.5605 16.4006C16.5341 16.7558 16.627 17.2915 16.5559 17.6065C16.5441 17.6589 16.5214 17.7087 16.479 17.7433C16.3144 17.8776 15.5762 17.7943 15.35 17.7636C15.3263 17.7603 15.3025 17.7566 15.2789 17.7525C15.2235 17.3179 15.2093 16.8811 15.1704 16.4451C15.2604 16.4224 15.5551 16.3441 15.6335 16.3696L15.6367 16.4824C15.6327 16.6756 15.6372 16.8576 15.688 17.0456C15.7682 17.0898 15.8459 17.1233 15.9381 17.1357C16.0062 17.1449 16.0767 17.1343 16.1311 17.0897C16.2983 16.953 16.2349 16.4424 16.2505 16.2367Z" fill="#71463E"/>
<path id="Vector_108" d="M16.2505 16.2367C16.3187 16.2409 16.3941 16.2412 16.4575 16.269C16.5145 16.2939 16.5396 16.3312 16.5617 16.3874C16.4758 16.3865 16.3905 16.3806 16.3049 16.3748C16.3121 16.613 16.382 16.9892 16.2047 17.1744C16.1325 17.2499 16.0243 17.2988 15.9192 17.2976C15.8546 17.2969 15.7927 17.2743 15.7479 17.2264C15.7024 17.1777 15.6983 17.1084 15.688 17.0456C15.7682 17.0898 15.846 17.1233 15.9381 17.1357C16.0062 17.1449 16.0767 17.1343 16.1311 17.0897C16.2983 16.953 16.2349 16.4424 16.2505 16.2367Z" fill="#581E1C"/>
<path id="Vector_109" d="M2.40161 16.8151C2.48979 16.811 2.57614 16.8288 2.6642 16.8109C3.09502 16.7234 3.50708 16.2996 3.68529 15.9134C3.73725 15.8008 3.77116 15.6323 3.86896 15.5532C3.91536 16.3694 4.03805 17.1771 4.09146 17.992C4.10318 18.1779 4.10745 18.3639 4.10426 18.5501C4.09759 18.8627 4.06076 19.2026 4.14114 19.508C4.23032 19.8469 4.45991 20.1662 4.7191 20.3965C4.78106 20.4515 4.9503 20.5974 5.03828 20.5934C5.04366 20.5932 5.04903 20.5925 5.05439 20.592C5.0721 20.6132 5.07888 20.62 5.0853 20.6477C5.07568 20.6611 5.07497 20.6636 5.06077 20.6754C4.98949 20.7344 4.78616 20.7214 4.69739 20.7091C3.93675 20.6041 3.17388 19.452 2.82853 18.8205C2.74413 18.6662 2.71267 18.4421 2.60104 18.3101C2.59607 18.3042 2.5907 18.2987 2.58553 18.293C2.45737 17.9911 2.43389 17.18 2.40161 16.8151Z" fill="#F1AC3D"/>
<path id="Vector_110" d="M18.6024 5.64795C18.7406 6.10393 18.8486 6.57376 18.9585 7.03723C19.1979 8.04443 19.4014 9.05881 19.5692 10.0804C19.6371 10.5034 19.7021 10.9268 19.7643 11.3507C19.7958 11.5599 19.8161 11.7792 19.8641 11.9846C19.6631 12.2454 19.2467 12.6555 18.9927 12.882C18.9582 12.6555 18.9638 12.4235 18.9362 12.1959C18.8491 11.4774 18.6879 10.9736 18.4131 10.3109C18.3389 10.1322 18.2556 9.87491 18.137 9.72759L18.1145 9.73022C18.0367 9.44435 18.019 9.14468 17.9355 8.86202C18.3615 7.8604 18.6634 6.74592 18.6024 5.64795Z" fill="url(#paint35_linear_2005_103)"/>
<path id="Vector_111" d="M17.8896 4.77628C17.9385 4.76944 17.9913 4.77049 18.0409 4.76794C18.0587 4.90942 18.0725 5.0513 18.0823 5.19357C18.092 5.33582 18.0977 5.47824 18.0993 5.62084C18.101 5.76343 18.0986 5.90594 18.0921 6.04839C18.0856 6.19085 18.0751 6.333 18.0606 6.47485C17.9382 7.65759 17.4955 9.09037 16.5413 9.86445L16.5299 9.65754C16.5275 9.35867 16.5229 9.05984 16.5159 8.76106C16.6017 8.71921 16.6426 8.67308 16.6827 8.5859C16.7724 8.39147 16.8081 8.04005 16.7242 7.84019C16.6741 7.72078 16.6069 7.67796 16.4922 7.6333C16.4925 7.36494 16.4713 7.0924 16.4537 6.82453C16.4128 6.20614 16.35 5.58883 16.3162 4.97004C16.8371 4.87474 17.3623 4.82117 17.8896 4.77628Z" fill="#E98F2F"/>
<path id="Vector_112" d="M8.65207 11.2987L8.78751 11.3415C9.77062 11.5564 10.7269 11.674 11.7359 11.6235C12.0051 11.6098 12.2738 11.5898 12.542 11.5633C12.7122 11.5467 12.8846 11.5218 13.0552 11.5138C12.8597 11.6964 12.6668 11.8788 12.4797 12.07L12.5247 12.1013L11.8743 12.7538C11.7457 12.8806 11.6067 13.0014 11.4862 13.1357L11.407 13.1521C10.8926 13.2108 10.3767 13.246 9.85923 13.2578C9.72726 13.2847 9.56616 13.2696 9.43056 13.27C9.00525 13.2714 8.58165 13.2544 8.15661 13.2449C8.14815 12.9393 8.14205 12.6334 8.12935 12.3279C8.12441 12.2091 8.09348 12.0298 8.10959 11.9173L8.1262 11.8557C8.28433 11.6558 8.49016 11.4965 8.65207 11.2987Z" fill="url(#paint36_linear_2005_103)"/>
<path id="Vector_113" d="M8.93652 11.9637C9.25761 11.9724 9.58217 12.0443 9.90316 12.0711C10.7544 12.1423 11.598 12.1596 12.4497 12.0857L12.4797 12.07L12.5247 12.1014L11.8743 12.7538C11.7457 12.8806 11.6066 13.0014 11.4862 13.1357L11.4069 13.1522C10.8926 13.2108 10.3767 13.246 9.85921 13.2579C9.57589 13.2466 9.28971 13.2567 9.00607 13.2556C8.92233 12.8378 8.95137 12.3891 8.93652 11.9637Z" fill="#E2483D"/>
<path id="Vector_114" d="M15.7161 8.57841C15.923 8.54608 16.1531 8.5868 16.3573 8.62357C16.3969 10.3845 16.4237 12.1456 16.4376 13.9069C16.4474 14.4819 16.4434 15.0564 16.4665 15.6313C16.3024 15.6077 16.1394 15.5978 15.9739 15.5949C15.7586 15.5968 15.5483 15.6227 15.3351 15.6496C15.3389 14.7281 15.3194 13.804 15.3038 12.8825C15.2826 11.481 15.2517 10.0798 15.2112 8.67868C15.3743 8.62404 15.5455 8.59607 15.7161 8.57841Z" fill="#71463E"/>
<path id="Vector_115" d="M15.8493 11.7784C15.8779 11.7821 15.9054 11.7861 15.933 11.795C15.9861 11.8123 16.0328 11.8472 16.0561 11.8991C16.076 11.9432 16.0768 11.9907 16.0592 12.0357C16.0303 12.1095 15.9666 12.1499 15.8964 12.1786C15.8713 12.1741 15.8461 12.1697 15.8214 12.1632C15.8149 12.1615 15.8085 12.1594 15.8022 12.157C15.7959 12.1547 15.7897 12.152 15.7837 12.149C15.7776 12.146 15.7718 12.1427 15.766 12.1391C15.7604 12.1355 15.7548 12.1316 15.7495 12.1275C15.7442 12.1233 15.7391 12.1189 15.7342 12.1143C15.7294 12.1096 15.7248 12.1047 15.7204 12.0996C15.716 12.0944 15.7119 12.0891 15.7081 12.0836C15.7042 12.078 15.7007 12.0723 15.6974 12.0664C15.6738 12.0242 15.6702 11.9759 15.6853 11.9302C15.7124 11.848 15.7756 11.8134 15.8493 11.7784Z" fill="url(#paint37_linear_2005_103)"/>
<path id="Vector_116" d="M15.7751 9.48171C15.8339 9.47892 15.8891 9.47929 15.9451 9.49968C15.9575 9.50419 15.9696 9.5093 15.9814 9.51503C15.9933 9.52076 16.0048 9.52707 16.016 9.53396C16.0272 9.54086 16.0381 9.54832 16.0485 9.55633C16.059 9.56432 16.069 9.57282 16.0786 9.58185C16.0882 9.59086 16.0973 9.60033 16.106 9.61026C16.1146 9.6202 16.1227 9.63055 16.1303 9.64133C16.1379 9.65209 16.1449 9.6632 16.1514 9.67466C16.1578 9.68614 16.1637 9.69791 16.169 9.70998C16.2116 9.80613 16.2182 9.91881 16.1749 10.0159C16.1223 10.1336 16.0283 10.1837 15.9134 10.225C15.8489 10.229 15.7839 10.2294 15.7224 10.207C15.6315 10.1739 15.5587 10.1085 15.5182 10.0203C15.5127 10.0085 15.508 9.99632 15.5038 9.98395C15.4996 9.97156 15.4961 9.95898 15.4932 9.94623C15.4903 9.93349 15.4881 9.92063 15.4866 9.90764C15.485 9.89468 15.4841 9.88166 15.4839 9.86858C15.4837 9.85553 15.4842 9.84249 15.4853 9.82947C15.4865 9.81645 15.4883 9.80352 15.4907 9.79068C15.4932 9.77785 15.4963 9.76518 15.5001 9.75267C15.5039 9.74016 15.5083 9.72788 15.5133 9.71582C15.5648 9.59073 15.6566 9.53207 15.7751 9.48171Z" fill="url(#paint38_linear_2005_103)"/>
<path id="Vector_117" d="M15.7804 9.61783C15.8115 9.61652 15.8442 9.61423 15.8749 9.61964C15.9374 9.63066 15.9997 9.66906 16.0363 9.72089C16.0762 9.77738 16.0877 9.84987 16.0716 9.91666C16.0489 10.0111 15.9882 10.0589 15.9098 10.1081C15.8804 10.1133 15.8469 10.1173 15.8172 10.1144C15.7566 10.1084 15.6946 10.0776 15.6585 10.0278C15.619 9.97351 15.6067 9.90099 15.618 9.8356C15.6362 9.72983 15.6972 9.67602 15.7804 9.61783Z" fill="#DED5CD"/>
<path id="Vector_118" d="M15.8139 9.71216C15.8678 9.72012 15.9196 9.73894 15.9537 9.78405C15.9782 9.81656 15.9857 9.8572 15.9775 9.89683C15.9644 9.95949 15.9216 9.99046 15.8701 10.0222C15.8236 10.0165 15.7757 10.0004 15.7413 9.96746C15.7121 9.93952 15.7015 9.90632 15.704 9.86611C15.7085 9.79301 15.7607 9.75369 15.8139 9.71216Z" fill="url(#paint39_linear_2005_103)"/>
<path id="Vector_119" d="M8.5522 5.88551C8.53892 5.83975 8.53206 5.79398 8.53198 5.74617C8.53114 5.22206 8.80944 4.39379 9.17942 4.03012C9.6155 3.60143 10.4348 3.47568 11.0192 3.40043C11.1677 3.38132 11.3223 3.35236 11.4717 3.34555C11.6062 3.3394 11.7455 3.34973 11.8804 3.35278C12.0531 3.35669 12.2254 3.35493 12.3981 3.35638C12.8062 3.35979 13.3492 3.31172 13.6577 3.63015C13.9941 3.97734 13.9744 4.51675 13.9679 4.96508L10.4053 5.56991C9.78785 5.67476 9.1683 5.77306 8.5522 5.88551Z" fill="#E2483D"/>
<path id="Vector_120" d="M8.76453 18.2807C9.27807 18.3783 9.79587 18.4236 10.3173 18.4536C10.508 18.4651 10.6987 18.4734 10.8896 18.4784C11.0806 18.4834 11.2715 18.4852 11.4625 18.4837C11.6534 18.4823 11.8443 18.4776 12.0351 18.4697C12.2259 18.4617 12.4166 18.4505 12.607 18.4361C12.7974 18.4217 12.9876 18.4041 13.1774 18.3833C13.3672 18.3624 13.5567 18.3383 13.7457 18.311C13.9347 18.2837 14.1232 18.2533 14.3112 18.2196C14.4992 18.1859 14.6865 18.149 14.8733 18.109C14.9487 18.2366 15.0344 18.3276 15.1493 18.4203L15.1596 19.2868C15.1627 19.616 15.1458 19.9692 15.2247 20.2906C15.3104 20.6399 15.4985 21.0252 15.6487 21.354C15.6891 21.4423 15.7796 21.6382 15.8755 21.6741C15.134 21.8577 14.3501 21.9374 13.59 22.0023C12.5794 22.0891 11.5668 22.1359 10.5524 22.1427C10.1521 22.1478 9.75196 22.1418 9.35199 22.1245C9.13503 22.1147 8.92066 22.0851 8.70292 22.0851C8.63939 22.0851 8.53039 22.0785 8.47706 22.114C8.3644 22.1277 8.2266 22.0928 8.11441 22.0744C8.15155 22.0141 8.17629 21.981 8.24904 21.9677C8.38299 21.9433 8.52905 21.9639 8.66512 21.9598C8.80272 21.9558 8.9424 21.9365 9.07944 21.9228C9.84952 21.8457 10.6311 21.691 11.3622 21.4346C12.1292 21.1655 13.0006 20.7531 13.6338 20.2379C13.8502 20.0619 14.0505 19.8539 14.2301 19.6404C14.3706 19.4733 14.514 19.2861 14.6074 19.088C14.6415 19.0156 14.71 18.8473 14.6692 18.7738C14.663 18.7626 14.648 18.7497 14.6387 18.7422C14.5948 18.7067 14.5213 18.6988 14.4673 18.6975C14.3405 18.6945 14.2064 18.7245 14.0809 18.7422L13.4716 18.8255C12.6998 18.9283 11.9701 18.9355 11.1952 18.9258C10.4898 18.917 9.76092 18.8952 9.06562 18.7719C9.06472 19.127 9.08525 19.4789 9.05886 19.8339C9.00895 20.5057 8.64662 21.463 8.12761 21.9109C8.08032 21.8916 8.03719 21.8675 7.9928 21.8425C7.99469 21.8133 7.98457 21.7868 7.98389 21.7572C8.03614 21.7379 8.09065 21.7219 8.12808 21.6782C8.24823 21.5379 8.30172 21.3121 8.35823 21.1387C8.4574 20.8346 8.56535 20.5218 8.6042 20.203C8.64612 19.8589 8.58341 19.5082 8.55914 19.1653C8.54206 18.9237 8.54561 18.6814 8.53081 18.4396C8.61692 18.399 8.69067 18.3399 8.76453 18.2807Z" fill="#E98F2F"/>
<path id="Vector_121" d="M18.8995 20.8992C18.8821 20.8925 18.8753 20.8852 18.862 20.8726C18.8211 20.7167 18.8774 20.2299 18.8781 20.036C18.8795 19.676 18.8652 19.3125 18.8457 18.953C18.8015 18.1349 18.7153 17.3197 18.634 16.5046C18.5882 16.0449 18.5198 15.5764 18.5223 15.1139C18.5243 14.7345 18.5658 14.2931 18.71 13.9415C18.7845 13.7598 18.9088 13.5616 19.099 13.4858C19.2031 13.4443 19.3153 13.4467 19.4169 13.4944C19.8571 13.7011 19.9927 14.5159 20.1025 14.9424C20.1627 15.1764 20.2278 15.4103 20.3116 15.6372C20.4338 15.9681 20.646 16.4426 21.0302 16.53C21.1181 16.55 21.2189 16.5449 21.3087 16.5412C21.3628 16.5389 21.4806 16.5196 21.5244 16.545C21.5386 16.5534 21.5359 16.5726 21.5382 16.5875C21.5597 16.7392 21.5954 16.9027 21.5978 17.0556C21.5643 17.0689 21.5502 17.0746 21.5335 17.1075C21.5181 17.1379 21.508 17.1744 21.4967 17.2067C21.4052 17.2952 21.2248 17.8444 21.1401 18.0166C20.943 18.4171 20.7086 18.79 20.4788 19.1718C20.3498 19.3862 19.7309 20.4758 19.4874 20.475C19.3882 20.5635 19.2888 20.6534 19.186 20.7377C19.115 20.7789 19.0473 20.8197 18.969 20.8457C18.9358 20.8627 18.9181 20.8662 18.8995 20.8992Z" fill="#E98F2F"/>
<path id="Vector_122" d="M19.5202 14.0844C19.5113 14.0252 19.4897 13.9663 19.4772 13.9072C19.452 13.7876 19.4374 13.6688 19.4297 13.5469C19.4662 13.6066 19.5002 13.6598 19.5195 13.728C19.5154 13.8457 19.5412 13.9685 19.5202 14.0844Z" fill="#E2483D"/>
<path id="Vector_123" d="M19.5195 13.728C19.6058 13.9507 19.7429 14.3288 19.7891 14.5536C19.7553 14.5155 19.7223 14.4767 19.6901 14.4374L19.6663 14.4396C19.6272 14.3128 19.6 14.1803 19.5574 14.0552C19.5657 14.2024 19.5781 14.3514 19.5713 14.4988L19.5368 14.4942C19.5104 14.532 19.519 14.5813 19.5118 14.625C19.5082 14.4447 19.5172 14.2647 19.5202 14.0844C19.5412 13.9685 19.5154 13.8457 19.5195 13.728Z" fill="url(#paint40_linear_2005_103)"/>
<path id="Vector_124" d="M19.6663 14.4396L19.69 14.4374C19.7223 14.4768 19.7553 14.5155 19.789 14.5536C19.9482 15.0818 20.0947 15.6021 20.3114 16.1111C20.3622 16.2305 20.6064 16.5292 20.6125 16.623C20.1106 16.1733 19.7904 15.0924 19.6663 14.4396Z" fill="url(#paint41_linear_2005_103)"/>
<path id="Vector_125" d="M19.5117 14.6249C19.5189 14.5812 19.5103 14.532 19.5367 14.4941L19.5712 14.4988C19.6012 14.8717 19.6099 15.2463 19.6251 15.6201C19.649 16.2369 19.6796 16.8535 19.7168 17.4697C19.7442 17.8452 19.7781 18.2201 19.8185 18.5944C19.8546 18.9414 19.9214 19.3155 19.875 19.6631C19.8334 19.9745 19.679 20.2321 19.4875 20.4749C19.3882 20.5634 19.2888 20.6533 19.186 20.7376C19.1151 20.7789 19.0473 20.8197 18.969 20.8456C18.998 20.7798 19.2022 20.6533 19.2663 20.5915C19.5084 20.3582 19.6905 20.0382 19.7427 19.7043C19.788 19.4137 19.7376 19.1143 19.7096 18.8242C19.678 18.497 19.6453 18.1689 19.6222 17.841C19.5469 16.774 19.4912 15.6946 19.5117 14.6249Z" fill="url(#paint42_linear_2005_103)"/>
<path id="Vector_126" d="M19.5572 14.0552C19.5997 14.1803 19.627 14.3128 19.6661 14.4395C19.7902 15.0924 20.1105 16.1732 20.6123 16.623C20.6983 16.7115 20.8191 16.7688 20.9292 16.8207C20.7766 17.3147 20.6534 17.8181 20.5004 18.3127C20.3585 18.7714 20.1875 19.2177 20.0614 19.6818C20.206 19.483 20.3174 19.2623 20.4328 19.0457C20.6942 18.5578 20.9312 18.0582 21.1436 17.5471C21.2462 17.3035 21.3887 16.7619 21.538 16.5874C21.5596 16.7391 21.5953 16.9026 21.5976 17.0556C21.5642 17.0689 21.5501 17.0746 21.5334 17.1075C21.5179 17.1379 21.5078 17.1743 21.4966 17.2066C21.4051 17.2952 21.2247 17.8443 21.1399 18.0165C20.9429 18.417 20.7085 18.7899 20.4787 19.1718C20.3496 19.3862 19.7308 20.4757 19.4873 20.4749C19.6789 20.2321 19.8333 19.9745 19.8748 19.6631C19.9213 19.3155 19.8544 18.9414 19.8183 18.5945C19.7779 18.2201 19.7441 17.8452 19.7166 17.4697C19.6794 16.8535 19.6489 16.237 19.625 15.6201C19.6098 15.2463 19.6011 14.8718 19.571 14.4988C19.5779 14.3514 19.5654 14.2024 19.5572 14.0552Z" fill="#F1AC3D"/>
<path id="Vector_127" d="M13.4333 5.17529C13.7836 5.11948 14.1336 5.06105 14.483 5C14.5866 5.83547 14.5469 6.68467 14.6235 7.52203C14.5137 7.57276 14.4473 7.62312 14.4024 7.7414C14.3245 7.9466 14.3552 8.30864 14.4429 8.50804C14.4821 8.59719 14.6046 8.59512 14.6273 8.66493C14.6544 8.74854 14.6834 10.003 14.6858 10.1922C13.0375 10.8222 11.3629 11.0775 9.60385 10.8735C9.06026 10.8105 8.52435 10.7144 8.01018 10.5224C7.99344 10.4511 8.00316 10.3565 8.00003 10.2819C8.03389 10.2612 8.04238 10.2592 8.08104 10.268C8.36247 10.332 8.49108 10.3874 8.78383 10.2972L8.78964 10.3321C8.85966 10.3 8.92285 10.2545 8.98698 10.2122C9.43066 10.2316 10.1013 9.92655 10.4967 9.71107C10.5985 9.65438 10.6982 9.59427 10.7959 9.53073C10.8935 9.46719 10.9889 9.40038 11.082 9.33029C11.175 9.2602 11.2656 9.187 11.3537 9.11068C11.4417 9.03437 11.527 8.95512 11.6096 8.87294C12.5042 7.99604 12.9747 6.98836 13.3243 5.80025C13.3618 5.67264 13.4932 5.285 13.4333 5.17529Z" fill="#E98F2F"/>
<path id="Vector_128" d="M8.44043 10.43C8.47428 10.4092 8.48277 10.4073 8.52144 10.4161C8.80286 10.4801 8.93147 10.5354 9.22423 10.4452L9.23004 10.4802C9.16548 10.5111 9.10208 10.5392 9.03146 10.5538C8.83433 10.5946 8.60734 10.54 8.44043 10.43Z" fill="#F1AC3D"/>
<path id="Vector_129" d="M6.11206 18.2803C6.33979 18.3989 6.56978 18.5129 6.80205 18.6223C6.90729 18.6711 7.01842 18.7089 7.12235 18.7596L7.12493 18.7779C7.15423 18.9922 7.12963 19.2137 7.11596 19.4285C7.06797 20.1821 7.13286 20.5199 7.49619 21.1832C7.62107 21.4111 7.74518 21.6498 7.95283 21.8138C7.96579 21.8241 7.97898 21.8333 7.99265 21.8425C8.03704 21.8675 8.08018 21.8916 8.12746 21.911C8.64647 21.4631 9.0088 20.5057 9.05872 19.834C9.08511 19.479 9.06458 19.1271 9.06547 18.7719C9.76077 18.8953 10.4897 18.9171 11.195 18.9259C11.9699 18.9355 12.6997 18.9284 13.4714 18.8255L14.0808 18.7423C14.2063 18.7245 14.3403 18.6945 14.4672 18.6976C14.5211 18.6989 14.5947 18.7068 14.6385 18.7422C14.6479 18.7498 14.6628 18.7627 14.6691 18.7739C14.7098 18.8474 14.6414 19.0157 14.6072 19.0881C14.5138 19.2862 14.3705 19.4734 14.2299 19.6405C14.0504 19.8539 13.8501 20.062 13.6337 20.238C13.0004 20.7532 12.1291 21.1656 11.3621 21.4346C10.6309 21.6911 9.84937 21.8457 9.0793 21.9228C8.94225 21.9366 8.80258 21.9558 8.66498 21.9599C8.5289 21.9639 8.38284 21.9433 8.2489 21.9678C8.17614 21.981 8.15141 22.0142 8.11427 22.0745C7.8187 22.0391 7.50368 21.9987 7.22336 21.8978C7.21009 21.8571 6.94559 21.642 6.89029 21.5814C6.80983 21.4932 6.73161 21.3873 6.68169 21.2784C6.48706 20.8536 6.42939 20.3621 6.35282 19.9058C6.26191 19.3641 6.17943 18.8256 6.11206 18.2803Z" fill="#F1AC3D"/>
<path id="Vector_130" d="M13.288 5.43081C13.481 5.38169 13.6768 5.35262 13.8735 5.32336C13.9334 5.43307 13.8021 5.82072 13.7645 5.94833C13.415 7.13643 12.9444 8.14412 12.0499 9.02102C11.9673 9.1032 11.8819 9.18245 11.7939 9.25876C11.7059 9.33507 11.6153 9.40827 11.5222 9.47836C11.4291 9.54845 11.3338 9.61527 11.2361 9.67881C11.1385 9.74234 11.0387 9.80246 10.9369 9.85914C10.5416 10.0746 9.87092 10.3796 9.42724 10.3603C9.3631 10.4026 9.29992 10.448 9.22989 10.4802L9.22409 10.4453C8.93133 10.5354 8.80272 10.4801 8.5213 10.4161C8.48263 10.4073 8.47414 10.4092 8.44029 10.43L8.41437 10.4276C8.36559 10.3608 8.31299 10.276 8.28902 10.1967C8.34687 10.2234 8.4067 10.3678 8.44108 10.4275C8.4389 10.251 8.45461 10.0785 8.47112 9.9032C8.47059 9.90112 8.47009 9.89904 8.46954 9.89699C8.44862 9.8193 8.45493 9.73766 8.45564 9.65786C8.45277 9.42164 8.52222 9.1773 8.49775 8.94127C8.49446 8.90949 8.49504 8.88802 8.46988 8.8662C8.40843 8.89343 8.3689 9.04746 8.3408 9.11243C8.31241 9.17809 8.28324 9.25723 8.21411 9.28528C8.21532 9.15132 8.22077 9.01752 8.23046 8.88389L8.35197 8.77515C8.45049 8.5951 8.43792 8.32109 8.44694 8.11996L8.46189 8.14391L8.49046 8.12222C8.49635 7.82997 8.48111 7.53974 8.48182 7.24811C8.48237 7.02081 8.49788 6.79355 8.50763 6.56651C8.51178 6.4696 8.49746 6.33018 8.53168 6.24245C9.10105 6.15881 9.66614 6.05189 10.2331 5.95369L12.8042 5.50848C12.958 5.45718 13.1276 5.44827 13.288 5.43081Z" fill="#F1AC3D"/>
<path id="Vector_131" d="M8.44677 8.12L8.46173 8.14394L8.4903 8.12226C8.4935 8.34278 8.51821 8.57048 8.48633 8.78906C8.44012 8.79461 8.4106 8.7924 8.36624 8.77926C8.36145 8.77784 8.35662 8.77655 8.35181 8.77518C8.45032 8.59514 8.43776 8.32112 8.44677 8.12Z" fill="#E3822B"/>
<path id="Vector_132" d="M9.33231 10.3784C9.38955 10.3383 9.44975 10.2631 9.49141 10.2071C9.64417 10.0018 9.73953 9.63312 9.65934 9.38331C9.62075 9.26316 9.52936 9.14712 9.51178 9.02253L9.52484 9.0116C9.52815 9.0142 9.5317 9.01656 9.5348 9.01943C9.6524 9.12804 9.71976 9.36207 9.73241 9.5171C9.76027 9.85895 9.64404 10.1027 9.42727 10.3602C9.36314 10.4025 9.29995 10.448 9.22993 10.4802L9.22412 10.4452C9.26594 10.4288 9.29677 10.4056 9.33231 10.3784Z" fill="#FAC149"/>
<path id="Vector_133" d="M8.47092 9.9032C8.52023 10.0532 8.63622 10.2185 8.77784 10.2914C8.98866 10.3999 9.16632 10.3185 9.33207 10.3784C9.29653 10.4056 9.2657 10.4288 9.22388 10.4453C8.93113 10.5354 8.80252 10.4801 8.52109 10.4161C8.48243 10.4073 8.47394 10.4093 8.44008 10.43L8.41417 10.4276C8.36538 10.3608 8.31279 10.276 8.28882 10.1967C8.34667 10.2234 8.40649 10.3678 8.44087 10.4275C8.43869 10.251 8.45441 10.0785 8.47092 9.9032Z" fill="#E98F2F"/>
<path id="Vector_134" d="M8.4865 8.78898L8.50994 8.80774C8.57334 8.79631 8.63232 8.77095 8.69575 8.75951C8.92271 8.71861 9.14702 8.7706 9.3359 8.90118C9.38955 8.93827 9.43823 8.98172 9.48569 9.02627L8.78049 9.45205C8.67708 9.51476 8.54543 9.57848 8.45564 9.6578C8.45277 9.42159 8.52222 9.17725 8.49775 8.94122C8.49446 8.90944 8.49504 8.88796 8.46988 8.86615C8.40843 8.89338 8.3689 9.0474 8.3408 9.11238C8.31241 9.17804 8.28324 9.25718 8.21411 9.28522C8.21532 9.15126 8.22077 9.01747 8.23046 8.88384L8.35197 8.7751C8.35678 8.77646 8.36162 8.77775 8.3664 8.77917C8.41077 8.79231 8.44029 8.79452 8.4865 8.78898Z" fill="#E98F2F"/>
<path id="Vector_135" d="M12.8039 5.50846C12.9577 5.45715 13.1273 5.44824 13.2877 5.43079C13.0801 5.71563 12.837 5.97674 12.6043 6.24095C11.8334 7.11614 11.0238 7.92359 10.0848 8.61949C9.90635 8.75176 9.72943 8.89317 9.53393 8.99936C9.34797 8.78879 9.14316 8.70368 8.86362 8.6871C8.80545 8.68401 8.74723 8.68223 8.68896 8.68174C8.86239 8.5562 9.0469 8.45059 9.22769 8.33644C9.46469 8.18455 9.69945 8.02929 9.93198 7.87065C10.361 7.57513 10.7807 7.26688 11.191 6.94589C11.6013 6.62491 12.0015 6.29179 12.3917 5.94654C12.4854 5.86366 12.7743 5.65954 12.8019 5.54733C12.8045 5.53669 12.8038 5.51844 12.8039 5.50846Z" fill="#E98F2F"/>
<path id="Vector_136" d="M9.60324 13.3925C9.93069 13.3647 10.2603 13.3597 10.5884 13.3364C11.4651 13.2666 12.3423 13.2047 13.22 13.1505C13.8675 13.1114 14.5193 13.0484 15.1674 13.0306C15.2075 13.9127 15.1992 14.7961 15.2121 15.6788C15.045 15.7388 14.831 15.8217 14.752 15.9949C14.7238 16.0567 14.7166 16.1331 14.7146 16.2007C14.7078 16.4402 14.7446 16.6895 14.7642 16.9283C14.7807 17.1284 14.7847 17.3357 14.8141 17.534C14.639 17.5776 14.4631 17.618 14.2865 17.6551C14.1099 17.6923 13.9327 17.7262 13.7548 17.7568C13.577 17.7875 13.3986 17.8149 13.2198 17.8391C13.0409 17.8633 12.8617 17.8842 12.6821 17.9018C12.5025 17.9194 12.3226 17.9338 12.1425 17.9448C11.9624 17.9559 11.7821 17.9636 11.6017 17.9681C11.4212 17.9726 11.2408 17.9738 11.0604 17.9716C10.8799 17.9695 10.6995 17.9641 10.5193 17.9555C10.2282 17.9435 9.92349 17.9412 9.63602 17.8958C9.36863 17.8859 9.09916 17.8434 8.83356 17.8116C8.89677 17.3927 9.02856 16.3486 8.80223 15.9886C8.69793 15.8228 8.49473 15.7795 8.31833 15.7365C8.2828 15.4939 8.27184 15.2418 8.25152 14.9972C8.20613 14.4505 8.16583 13.9014 8.16602 13.3527C8.64363 13.3566 9.12602 13.3723 9.60324 13.3925Z" fill="#E2483D"/>
<path id="Vector_137" d="M11.7714 16.1824C11.8807 16.1882 11.9812 16.2038 12.077 16.2611C12.0846 16.2657 12.0921 16.2705 12.0995 16.2754C12.1068 16.2804 12.1141 16.2856 12.1212 16.2909C12.1282 16.2963 12.1352 16.3018 12.142 16.3075C12.1488 16.3132 12.1555 16.3191 12.162 16.3251C12.1685 16.3312 12.1748 16.3374 12.181 16.3438C12.1872 16.3502 12.1932 16.3567 12.1991 16.3634C12.2049 16.3701 12.2106 16.3769 12.2161 16.3839C12.2216 16.3909 12.2269 16.398 12.232 16.4053C12.2372 16.4125 12.2421 16.4199 12.2468 16.4274C12.2516 16.4349 12.2561 16.4425 12.2605 16.4503C12.2648 16.458 12.269 16.4659 12.2729 16.4738C12.2769 16.4818 12.2806 16.4899 12.2842 16.498C12.2877 16.5062 12.291 16.5144 12.2941 16.5227C12.2972 16.5311 12.3001 16.5394 12.3028 16.5479C12.3055 16.5564 12.3079 16.5649 12.3102 16.5735C12.3124 16.5821 12.3144 16.5908 12.3162 16.5995C12.3182 16.6083 12.3199 16.6172 12.3214 16.6261C12.3229 16.635 12.3241 16.6439 12.3251 16.6529C12.3262 16.6618 12.3269 16.6708 12.3275 16.6798C12.3281 16.6888 12.3284 16.6979 12.3285 16.7069C12.3286 16.7159 12.3284 16.7249 12.3281 16.7339C12.3277 16.743 12.3271 16.752 12.3262 16.761C12.3254 16.77 12.3243 16.7789 12.323 16.7878C12.3217 16.7968 12.3202 16.8057 12.3184 16.8145C12.3167 16.8234 12.3147 16.8322 12.3125 16.8409C12.3102 16.8497 12.3078 16.8584 12.3051 16.867C12.3025 16.8756 12.2996 16.8841 12.2965 16.8926C12.2934 16.9011 12.29 16.9095 12.2865 16.9178C12.283 16.9261 12.2792 16.9343 12.2753 16.9424C12.2713 16.9505 12.2671 16.9585 12.2627 16.9664C12.2584 16.9743 12.2538 16.9821 12.249 16.9897C12.2442 16.9974 12.2392 17.0049 12.2341 17.0123C12.1328 17.1546 11.9867 17.2055 11.8228 17.2354C11.6991 17.2301 11.5815 17.2052 11.4771 17.1348C11.4699 17.1299 11.4627 17.1248 11.4557 17.1195C11.4487 17.1143 11.4419 17.1088 11.4352 17.1032C11.4284 17.0976 11.4219 17.0918 11.4154 17.0858C11.409 17.0799 11.4027 17.0738 11.3966 17.0675C11.3905 17.0612 11.3846 17.0548 11.3788 17.0482C11.373 17.0416 11.3674 17.0349 11.362 17.028C11.3566 17.0211 11.3513 17.0141 11.3463 17.007C11.3412 16.9999 11.3363 16.9926 11.3316 16.9852C11.3269 16.9778 11.3224 16.9703 11.3181 16.9627C11.3138 16.955 11.3097 16.9473 11.3058 16.9395C11.3019 16.9316 11.2982 16.9237 11.2947 16.9157C11.2912 16.9077 11.2879 16.8995 11.2848 16.8913C11.2817 16.8831 11.2788 16.8749 11.2762 16.8665C11.2735 16.8582 11.2711 16.8498 11.2688 16.8413C11.2666 16.8328 11.2646 16.8243 11.2628 16.8157C11.261 16.8072 11.2595 16.7985 11.2581 16.7899C11.2568 16.7813 11.2556 16.7726 11.2547 16.7639C11.2538 16.7552 11.2531 16.7465 11.2527 16.7378C11.2522 16.7291 11.252 16.7204 11.252 16.7116C11.2519 16.7029 11.2521 16.6942 11.2526 16.6855C11.253 16.6767 11.2536 16.668 11.2545 16.6594C11.2553 16.6507 11.2564 16.642 11.2577 16.6334C11.259 16.6247 11.2605 16.6161 11.2622 16.6076C11.2639 16.599 11.2659 16.5905 11.268 16.5821C11.2702 16.5736 11.2726 16.5652 11.2751 16.5568C11.2777 16.5485 11.2805 16.5402 11.2835 16.532C11.2865 16.5238 11.2897 16.5157 11.2931 16.5077C11.2965 16.4996 11.3001 16.4917 11.3039 16.4838C11.3078 16.476 11.3118 16.4682 11.316 16.4606C11.3202 16.4529 11.3246 16.4454 11.3292 16.438C11.3337 16.4305 11.3385 16.4232 11.3435 16.416C11.3484 16.4088 11.3535 16.4018 11.3588 16.3948C11.4629 16.2589 11.6087 16.2066 11.7714 16.1824Z" fill="url(#paint43_linear_2005_103)"/>
<path id="Vector_138" d="M11.7323 16.2794C11.8278 16.2783 11.9184 16.2868 12.0045 16.3326C12.011 16.336 12.0174 16.3396 12.0237 16.3433C12.03 16.3471 12.0362 16.351 12.0423 16.3551C12.0484 16.3591 12.0544 16.3633 12.0603 16.3677C12.0662 16.3721 12.0719 16.3766 12.0776 16.3813C12.0832 16.386 12.0888 16.3908 12.0942 16.3958C12.0996 16.4008 12.1048 16.4059 12.11 16.4111C12.1151 16.4163 12.1201 16.4217 12.125 16.4272C12.1298 16.4327 12.1346 16.4383 12.1391 16.4441C12.1437 16.4498 12.1481 16.4557 12.1524 16.4616C12.1567 16.4676 12.1608 16.4737 12.1647 16.4799C12.1687 16.486 12.1725 16.4923 12.1761 16.4987C12.1798 16.5051 12.1832 16.5115 12.1865 16.5181C12.1898 16.5246 12.1929 16.5313 12.1959 16.538C12.1988 16.5447 12.2016 16.5515 12.2042 16.5584C12.2068 16.5652 12.2092 16.5722 12.2115 16.5791C12.2137 16.5861 12.2158 16.5932 12.2177 16.6003C12.2475 16.7131 12.232 16.8338 12.169 16.9328C12.0944 17.05 11.9809 17.1031 11.8502 17.1331C11.756 17.1338 11.6704 17.1276 11.5841 17.0842C11.5711 17.0777 11.5585 17.0705 11.5462 17.0627C11.534 17.0549 11.5222 17.0464 11.5108 17.0374C11.4994 17.0283 11.4885 17.0187 11.4782 17.0086C11.4678 16.9984 11.458 16.9877 11.4487 16.9765C11.4394 16.9653 11.4307 16.9537 11.4226 16.9416C11.4146 16.9295 11.4071 16.917 11.4004 16.9042C11.3936 16.8913 11.3875 16.8782 11.3821 16.8647C11.3766 16.8512 11.3719 16.8374 11.3679 16.8235C11.364 16.8094 11.3607 16.7952 11.3582 16.7808C11.3557 16.7665 11.3539 16.752 11.3529 16.7374C11.3518 16.7229 11.3516 16.7083 11.352 16.6937C11.3525 16.6791 11.3536 16.6646 11.3556 16.6501C11.3575 16.6357 11.3601 16.6213 11.3635 16.6072C11.3669 16.5929 11.371 16.579 11.3758 16.5652C11.3806 16.5514 11.3861 16.5379 11.3923 16.5247C11.3985 16.5115 11.4053 16.4986 11.4128 16.4861C11.4866 16.3639 11.5999 16.3132 11.7323 16.2794Z" fill="#E98F2F"/>
<path id="Vector_139" d="M8.16602 13.3527C8.64363 13.3566 9.12602 13.3723 9.60324 13.3925C9.23311 13.6772 8.84376 14.0612 8.7771 14.5477C8.69296 15.1616 9.06709 16.1863 9.24133 16.7839C9.30058 16.9871 9.3358 17.1955 9.40317 17.3966C9.47145 17.2669 9.53582 17.1489 9.64543 17.0492C9.85641 16.8574 10.1402 16.7383 10.3714 16.5673C10.8596 16.2065 11.2188 15.6591 11.8229 15.4736C12.0832 15.3936 12.4026 15.3792 12.6477 15.5152C12.8036 15.6018 12.9014 15.7419 12.9468 15.9116C13.0334 16.2348 12.9084 16.5762 12.7448 16.8539C12.658 17.0012 12.5618 17.1167 12.4181 17.2104L12.4209 17.2084L12.41 17.2026C12.4775 17.1455 12.5502 17.0886 12.6072 17.0209C12.781 16.8146 12.9261 16.4875 12.9489 16.2193C12.9658 16.0203 12.9271 15.8179 12.7975 15.6607C12.6741 15.511 12.4852 15.4506 12.298 15.4357C11.8592 15.4006 11.4705 15.6203 11.1492 15.8973C10.9103 16.1032 10.7008 16.3453 10.4496 16.5367C10.2143 16.7161 9.80132 16.9138 9.62051 17.0986C9.53924 17.1817 9.49282 17.2818 9.48617 17.3983C9.4761 17.5751 9.56253 17.741 9.63602 17.8958C9.36863 17.8859 9.09916 17.8434 8.83356 17.8116C8.89677 17.3927 9.02856 16.3486 8.80223 15.9886C8.69793 15.8228 8.49473 15.7795 8.31833 15.7365C8.2828 15.4939 8.27184 15.2417 8.25152 14.9972C8.20613 14.4505 8.16583 13.9013 8.16602 13.3527Z" fill="url(#paint44_linear_2005_103)"/>
</g>
</g>
<defs>
<linearGradient id="paint0_linear_2005_103" x1="12.9833" y1="1.78061" x2="13.6576" y2="2.48326" gradientUnits="userSpaceOnUse">
<stop stop-color="#84161A"/>
<stop offset="1" stop-color="#C42930"/>
</linearGradient>
<linearGradient id="paint1_linear_2005_103" x1="9.76242" y1="2.03982" x2="10.3739" y2="2.59122" gradientUnits="userSpaceOnUse">
<stop stop-color="#84161A"/>
<stop offset="1" stop-color="#C42930"/>
</linearGradient>
<linearGradient id="paint2_linear_2005_103" x1="8.70872" y1="6.04041" x2="17.1855" y2="12.7507" gradientUnits="userSpaceOnUse">
<stop stop-color="#84161A"/>
<stop offset="1" stop-color="#84161A"/>
</linearGradient>
<linearGradient id="paint3_linear_2005_103" x1="9.79369" y1="1.58178" x2="10.6325" y2="2.61655" gradientUnits="userSpaceOnUse">
<stop stop-color="#84161A"/>
<stop offset="1" stop-color="#C42930"/>
</linearGradient>
<linearGradient id="paint4_linear_2005_103" x1="8.25578" y1="10.7544" x2="8.38414" y2="10.8187" gradientUnits="userSpaceOnUse">
<stop stop-color="#84161A"/>
<stop offset="1" stop-color="#C42930"/>
</linearGradient>
<linearGradient id="paint5_linear_2005_103" x1="4.76997" y1="7.9452" x2="5.11489" y2="8.01879" gradientUnits="userSpaceOnUse">
<stop stop-color="#84161A"/>
<stop offset="1" stop-color="#C42930"/>
</linearGradient>
<linearGradient id="paint6_linear_2005_103" x1="8.29994" y1="11.2666" x2="8.55818" y2="11.4115" gradientUnits="userSpaceOnUse">
<stop stop-color="#84161A"/>
<stop offset="1" stop-color="#C42930"/>
</linearGradient>
<linearGradient id="paint7_linear_2005_103" x1="16.8982" y1="4.60511" x2="16.9581" y2="4.85369" gradientUnits="userSpaceOnUse">
<stop stop-color="#84161A"/>
<stop offset="1" stop-color="#C42930"/>
</linearGradient>
<linearGradient id="paint8_linear_2005_103" x1="6.04154" y1="10.1608" x2="6.45352" y2="10.4512" gradientUnits="userSpaceOnUse">
<stop stop-color="#84161A"/>
<stop offset="1" stop-color="#C42930"/>
</linearGradient>
<linearGradient id="paint9_linear_2005_103" x1="5.67216" y1="6.34573" x2="5.80421" y2="6.72911" gradientUnits="userSpaceOnUse">
<stop stop-color="#84161A"/>
<stop offset="1" stop-color="#C42930"/>
</linearGradient>
<linearGradient id="paint10_linear_2005_103" x1="19.0695" y1="20.9938" x2="19.4433" y2="21.4004" gradientUnits="userSpaceOnUse">
<stop stop-color="#84161A"/>
<stop offset="1" stop-color="#C42930"/>
</linearGradient>
<linearGradient id="paint11_linear_2005_103" x1="6.5495" y1="3.70484" x2="7.09083" y2="4.02445" gradientUnits="userSpaceOnUse">
<stop stop-color="#84161A"/>
<stop offset="1" stop-color="#C42930"/>
</linearGradient>
<linearGradient id="paint12_linear_2005_103" x1="16.7272" y1="3.54103" x2="17.294" y2="4.06843" gradientUnits="userSpaceOnUse">
<stop stop-color="#84161A"/>
<stop offset="1" stop-color="#C42930"/>
</linearGradient>
<linearGradient id="paint13_linear_2005_103" x1="10.6543" y1="5.12306" x2="10.9143" y2="6.12499" gradientUnits="userSpaceOnUse">
<stop stop-color="#84161A"/>
<stop offset="1" stop-color="#C42930"/>
</linearGradient>
<linearGradient id="paint14_linear_2005_103" x1="2.12247" y1="15.1247" x2="2.35429" y2="15.1738" gradientUnits="userSpaceOnUse">
<stop stop-color="#84161A"/>
<stop offset="1" stop-color="#C42930"/>
</linearGradient>
<linearGradient id="paint15_linear_2005_103" x1="16.8282" y1="10.3068" x2="17.3219" y2="10.4018" gradientUnits="userSpaceOnUse">
<stop stop-color="#84161A"/>
<stop offset="1" stop-color="#C42930"/>
</linearGradient>
<linearGradient id="paint16_linear_2005_103" x1="17.2948" y1="14.1505" x2="17.7011" y2="14.2067" gradientUnits="userSpaceOnUse">
<stop stop-color="#84161A"/>
<stop offset="1" stop-color="#C42930"/>
</linearGradient>
<linearGradient id="paint17_linear_2005_103" x1="17.2089" y1="4.63013" x2="18.3572" y2="4.86434" gradientUnits="userSpaceOnUse">
<stop stop-color="#84161A"/>
<stop offset="1" stop-color="#C42930"/>
</linearGradient>
<linearGradient id="paint18_linear_2005_103" x1="10.7549" y1="10.6249" x2="10.9289" y2="11.4647" gradientUnits="userSpaceOnUse">
<stop stop-color="#84161A"/>
<stop offset="1" stop-color="#C42930"/>
</linearGradient>
<linearGradient id="paint19_linear_2005_103" x1="5.33617" y1="4.76465" x2="6.6119" y2="5.04453" gradientUnits="userSpaceOnUse">
<stop stop-color="#84161A"/>
<stop offset="1" stop-color="#C42930"/>
</linearGradient>
<linearGradient id="paint20_linear_2005_103" x1="13.4199" y1="11.2177" x2="14.2943" y2="12.0579" gradientUnits="userSpaceOnUse">
<stop stop-color="#84161A"/>
<stop offset="1" stop-color="#C42930"/>
</linearGradient>
<linearGradient id="paint21_linear_2005_103" x1="5.33917" y1="11.5714" x2="5.57018" y2="11.5764" gradientUnits="userSpaceOnUse">
<stop stop-color="#84161A"/>
<stop offset="1" stop-color="#C42930"/>
</linearGradient>
<linearGradient id="paint22_linear_2005_103" x1="7.15388" y1="21.3679" x2="7.6955" y2="23.0246" gradientUnits="userSpaceOnUse">
<stop stop-color="#84161A"/>
<stop offset="1" stop-color="#C42930"/>
</linearGradient>
<linearGradient id="paint23_linear_2005_103" x1="7.50201" y1="16.5462" x2="8.2529" y2="17.1281" gradientUnits="userSpaceOnUse">
<stop stop-color="#84161A"/>
<stop offset="1" stop-color="#C42930"/>
</linearGradient>
<linearGradient id="paint24_linear_2005_103" x1="10.6546" y1="3.66071" x2="11.6598" y2="5.4217" gradientUnits="userSpaceOnUse">
<stop stop-color="#84161A"/>
<stop offset="1" stop-color="#C42930"/>
</linearGradient>
<linearGradient id="paint25_linear_2005_103" x1="21.0226" y1="14.5872" x2="21.4055" y2="14.7071" gradientUnits="userSpaceOnUse">
<stop stop-color="#84161A"/>
<stop offset="1" stop-color="#C42930"/>
</linearGradient>
<linearGradient id="paint26_linear_2005_103" x1="21.0048" y1="14.5376" x2="21.2765" y2="14.6457" gradientUnits="userSpaceOnUse">
<stop stop-color="#84161A"/>
<stop offset="1" stop-color="#C42930"/>
</linearGradient>
<linearGradient id="paint27_linear_2005_103" x1="17.9061" y1="11.4496" x2="18.6703" y2="11.5045" gradientUnits="userSpaceOnUse">
<stop stop-color="#84161A"/>
<stop offset="1" stop-color="#C42930"/>
</linearGradient>
<linearGradient id="paint28_linear_2005_103" x1="2.41939" y1="15.1663" x2="2.68526" y2="15.2735" gradientUnits="userSpaceOnUse">
<stop stop-color="#84161A"/>
<stop offset="1" stop-color="#C42930"/>
</linearGradient>
<linearGradient id="paint29_linear_2005_103" x1="13.8924" y1="21.1521" x2="14.5145" y2="22.9857" gradientUnits="userSpaceOnUse">
<stop stop-color="#84161A"/>
<stop offset="1" stop-color="#C42930"/>
</linearGradient>
<linearGradient id="paint30_linear_2005_103" x1="7.4141" y1="12.1146" x2="7.60661" y2="12.2599" gradientUnits="userSpaceOnUse">
<stop stop-color="#84161A"/>
<stop offset="1" stop-color="#C42930"/>
</linearGradient>
<linearGradient id="paint31_linear_2005_103" x1="7.43055" y1="12.1656" x2="7.536" y2="12.2314" gradientUnits="userSpaceOnUse">
<stop stop-color="#84161A"/>
<stop offset="1" stop-color="#C42930"/>
</linearGradient>
<linearGradient id="paint32_linear_2005_103" x1="7.2989" y1="9.61226" x2="7.67724" y2="9.87124" gradientUnits="userSpaceOnUse">
<stop stop-color="#84161A"/>
<stop offset="1" stop-color="#C42930"/>
</linearGradient>
<linearGradient id="paint33_linear_2005_103" x1="4.21504" y1="8.0954" x2="5.06307" y2="8.22994" gradientUnits="userSpaceOnUse">
<stop stop-color="#84161A"/>
<stop offset="1" stop-color="#C42930"/>
</linearGradient>
<linearGradient id="paint34_linear_2005_103" x1="15.6355" y1="16.4226" x2="16.3547" y2="16.9073" gradientUnits="userSpaceOnUse">
<stop stop-color="#84161A"/>
<stop offset="1" stop-color="#C42930"/>
</linearGradient>
<linearGradient id="paint35_linear_2005_103" x1="18.6113" y1="6.74768" x2="19.7771" y2="6.97133" gradientUnits="userSpaceOnUse">
<stop stop-color="#84161A"/>
<stop offset="1" stop-color="#C42930"/>
</linearGradient>
<linearGradient id="paint36_linear_2005_103" x1="9.83952" y1="11.599" x2="10.569" y2="12.9147" gradientUnits="userSpaceOnUse">
<stop stop-color="#84161A"/>
<stop offset="1" stop-color="#C42930"/>
</linearGradient>
<linearGradient id="paint37_linear_2005_103" x1="15.8148" y1="11.8393" x2="15.9795" y2="11.9564" gradientUnits="userSpaceOnUse">
<stop stop-color="#84161A"/>
<stop offset="1" stop-color="#C42930"/>
</linearGradient>
<linearGradient id="paint38_linear_2005_103" x1="15.7363" y1="9.59397" x2="16.041" y2="9.8055" gradientUnits="userSpaceOnUse">
<stop stop-color="#84161A"/>
<stop offset="1" stop-color="#C42930"/>
</linearGradient>
<linearGradient id="paint39_linear_2005_103" x1="15.8007" y1="9.75929" x2="15.9235" y2="9.83829" gradientUnits="userSpaceOnUse">
<stop stop-color="#84161A"/>
<stop offset="1" stop-color="#C42930"/>
</linearGradient>
<linearGradient id="paint40_linear_2005_103" x1="19.6084" y1="13.8644" x2="19.7745" y2="13.9014" gradientUnits="userSpaceOnUse">
<stop stop-color="#84161A"/>
<stop offset="1" stop-color="#C42930"/>
</linearGradient>
<linearGradient id="paint41_linear_2005_103" x1="19.9978" y1="14.7696" x2="20.5384" y2="14.9381" gradientUnits="userSpaceOnUse">
<stop stop-color="#84161A"/>
<stop offset="1" stop-color="#C42930"/>
</linearGradient>
<linearGradient id="paint42_linear_2005_103" x1="19.292" y1="15.4597" x2="19.8635" y2="15.5194" gradientUnits="userSpaceOnUse">
<stop stop-color="#84161A"/>
<stop offset="1" stop-color="#C42930"/>
</linearGradient>
<linearGradient id="paint43_linear_2005_103" x1="11.6292" y1="16.3425" x2="12.067" y2="16.6645" gradientUnits="userSpaceOnUse">
<stop stop-color="#84161A"/>
<stop offset="1" stop-color="#C42930"/>
</linearGradient>
<linearGradient id="paint44_linear_2005_103" x1="9.8511" y1="14.0433" x2="11.7584" y2="15.4962" gradientUnits="userSpaceOnUse">
<stop stop-color="#84161A"/>
<stop offset="1" stop-color="#C42930"/>
</linearGradient>
</defs>
</svg>
