<svg width="24" height="24" viewBox="0 0 24 24" fill="none" xmlns="http://www.w3.org/2000/svg">
<g id="fluent-emoji-flat:japanese-castle">
<g id="Group">
<path id="Vector" d="M7.5 5.25H16.5V9.75H7.5V5.25ZM18.75 11.25H5.25V15.75H18.75V11.25ZM20.25 16.5H3.75V22.5H9.741L11.9963 21.405L14.2523 22.5H20.25V16.5Z" fill="#E1D8EC"/>
<path id="Vector_2" d="M18.471 4.68C18.5821 4.60572 18.6664 4.49766 18.7113 4.3718C18.7562 4.24594 18.7595 4.10895 18.7205 3.98111C18.6816 3.85327 18.6025 3.74135 18.4951 3.66191C18.3876 3.58247 18.2574 3.53973 18.1238 3.54C17.9999 3.53833 17.8786 3.57501 17.7765 3.645C17.4646 3.84927 17.1001 3.95869 16.7273 3.96C16.0785 3.96 15.4373 3.63 15.075 3L14.5395 1.9575C14.4672 1.81985 14.3588 1.70451 14.2258 1.6239C14.0929 1.54329 13.9405 1.50045 13.785 1.5H10.275C9.96526 1.5 9.68626 1.665 9.53551 1.9275L8.92501 3C8.75908 3.29198 8.51864 3.5347 8.22823 3.70336C7.93781 3.87202 7.60784 3.96058 7.27201 3.96C6.91051 3.96 6.54826 3.855 6.22351 3.645C6.12347 3.57647 6.00502 3.53986 5.88376 3.54C5.80107 3.53851 5.71891 3.5535 5.64208 3.58412C5.56525 3.61473 5.4953 3.66035 5.43629 3.7183C5.37729 3.77625 5.33043 3.84538 5.29845 3.92165C5.26646 3.99792 5.25 4.0798 5.25001 4.1625C5.25001 4.3725 5.35501 4.5675 5.52901 4.68L7.03876 5.685C7.35526 5.8875 7.71751 6 8.09476 6H15.9128C16.275 6 16.6373 5.8875 16.9463 5.685L18.471 4.68ZM21.375 10.17C21.375 10.38 21.27 10.575 21.096 10.6875L19.5893 11.685C19.281 11.8875 18.9195 12 18.5423 12H5.45776C5.08541 11.9984 4.7215 11.889 4.41001 11.685L2.90401 10.6875C2.818 10.6314 2.7474 10.5546 2.69867 10.4642C2.64993 10.3739 2.62461 10.2727 2.62501 10.17C2.62501 9.8025 2.92651 9.54 3.25801 9.54C3.37051 9.54 3.49126 9.5775 3.60451 9.645C3.96795 9.88464 4.40263 9.99229 4.8359 9.94998C5.26917 9.90766 5.6748 9.71793 5.98501 9.4125C6.24826 9.15 6.60976 9 6.98701 9H17.0213C17.3978 9 17.7593 9.15 18.0225 9.4125C18.384 9.7725 18.8663 9.96 19.356 9.96C19.7175 9.96 20.079 9.855 20.403 9.645C20.5163 9.57 20.6295 9.54 20.7495 9.54C21.0735 9.54 21.375 9.8025 21.375 10.17ZM22.5 16.17C22.5 16.38 22.395 16.575 22.2225 16.6875L20.7225 17.685C20.415 17.8875 20.055 18 19.68 18H4.32001C3.95251 18 3.58501 17.8875 3.27751 17.685L1.77751 16.6875C1.69177 16.6312 1.62147 16.5544 1.57301 16.464C1.52454 16.3736 1.49945 16.2726 1.50001 16.17C1.50001 15.8025 1.80001 15.54 2.13001 15.54C2.24251 15.54 2.36251 15.5775 2.47501 15.645C2.79001 15.855 3.15751 15.96 3.51751 15.96C4.00501 15.96 4.48501 15.7725 4.84501 15.4125C5.10751 15.15 5.46751 15 5.84251 15H18.165C18.54 15 18.9 15.15 19.1625 15.4125C19.5225 15.7725 20.0025 15.96 20.49 15.96C20.85 15.96 21.21 15.855 21.5325 15.645C21.634 15.5755 21.7545 15.5388 21.8775 15.54C22.1925 15.54 22.5 15.8025 22.5 16.17Z" fill="url(#paint0_linear_2005_424)"/>
<path id="Vector_3" d="M10.1778 8.25H9.32281C9.14281 8.25 9.00031 8.1075 9.00031 7.9275V7.0725C9.00031 6.8925 9.14281 6.75 9.32281 6.75H10.1778C10.3578 6.75 10.5003 6.8925 10.5003 7.0725V7.9275C10.5013 7.97013 10.4937 8.01253 10.4779 8.05212C10.462 8.09171 10.4383 8.12768 10.4081 8.15783C10.378 8.18798 10.342 8.2117 10.3024 8.22755C10.2628 8.24339 10.2204 8.25103 10.1778 8.25ZM7.92781 14.25H7.07281C6.89281 14.25 6.75031 14.1075 6.75031 13.9275V13.0725C6.75031 12.8925 6.89281 12.75 7.07281 12.75H7.92781C8.10781 12.75 8.25031 12.8925 8.25031 13.0725V13.9275C8.25134 13.9701 8.2437 14.0125 8.22786 14.0521C8.21201 14.0917 8.1883 14.1277 8.15814 14.1578C8.12799 14.188 8.09203 14.2117 8.05243 14.2275C8.01284 14.2434 7.97044 14.251 7.92781 14.25ZM5.82031 21H7.69531C8.00281 21 8.25781 20.7525 8.25781 20.4375V19.3125C8.25781 19.005 8.00281 18.75 7.69531 18.75H5.82031C5.51281 18.75 5.25781 19.005 5.25781 19.3125V20.4375C5.25781 20.745 5.51281 21 5.82031 21ZM9.75031 22.5H14.2503V19.5075C14.2503 19.0875 13.9128 18.75 13.4928 18.75H10.5078C10.0878 18.75 9.75031 19.0875 9.75031 19.5075V22.5ZM11.5728 14.25H12.4278C12.6078 14.25 12.7578 14.1075 12.7503 13.9275V13.0725C12.7503 12.8925 12.6078 12.75 12.4278 12.75H11.5728C11.3928 12.75 11.2503 12.8925 11.2503 13.0725V13.9275C11.2503 14.1075 11.3928 14.25 11.5728 14.25ZM13.8228 8.25H14.6778C14.8578 8.25 15.0078 8.1075 15.0003 7.9275V7.0725C15.0003 6.8925 14.8578 6.75 14.6778 6.75H13.8228C13.6428 6.75 13.5003 6.8925 13.5003 7.0725V7.9275C13.5003 8.1075 13.6428 8.25 13.8228 8.25ZM16.9278 14.25H16.0728C15.8928 14.25 15.7503 14.1075 15.7503 13.9275V13.0725C15.7503 12.8925 15.8928 12.75 16.0728 12.75H16.9278C17.1078 12.75 17.2503 12.8925 17.2503 13.0725V13.9275C17.2513 13.9701 17.2437 14.0125 17.2279 14.0521C17.212 14.0917 17.1883 14.1277 17.1581 14.1578C17.128 14.188 17.092 14.2117 17.0524 14.2275C17.0128 14.2434 16.9704 14.251 16.9278 14.25ZM16.3203 21H18.1953C18.5028 21 18.7578 20.7525 18.7578 20.4375V19.3125C18.7578 19.005 18.5028 18.75 18.1953 18.75H16.3203C16.0128 18.75 15.7578 19.005 15.7578 19.3125V20.4375C15.7578 20.745 16.0128 21 16.3203 21Z" fill="#321B41"/>
</g>
</g>
<defs>
<linearGradient id="paint0_linear_2005_424" x1="8.85833" y1="4.00834" x2="16.0159" y2="10.564" gradientUnits="userSpaceOnUse">
<stop stop-color="#84161A"/>
<stop offset="1" stop-color="#C42930"/>
</linearGradient>
</defs>
</svg>
