<svg width="31" height="31" viewBox="0 0 31 31" fill="none" xmlns="http://www.w3.org/2000/svg">
<g id="crone">
<g id="Icon">
<path id="Vector" d="M7.96353 7.22534C7.96353 7.22534 6.82654 7.59319 6.5423 8.39577C6.39181 8.76362 6.10756 11.5392 5.30498 12.5257C4.48568 13.5122 8.46515 11.1546 8.46515 11.1546L7.96353 7.22534Z" fill="url(#paint0_linear_158_879)"/>
<path id="Vector_2" d="M0.0883789 11.4388C1.47617 10.7199 2.51284 12.5257 4.56945 12.7263C6.64278 12.927 6.8936 7.49282 7.96371 7.22529C9.05053 6.95776 13.9329 13.3784 16.3072 14.0639L16.0397 23.2267C16.0397 23.2267 7.26144 23.1431 5.94053 22.6415C4.60289 22.1399 0.0883789 11.4388 0.0883789 11.4388Z" fill="url(#paint1_linear_158_879)"/>
<path id="Vector_3" d="M31.5059 11.372C31.5059 11.372 30.5361 13.6794 29.3657 16.2209C28.6802 17.6756 27.9445 19.2139 27.2757 20.4178C26.6068 21.6216 26.0216 22.5078 25.6538 22.6416C24.5168 23.0763 17.8788 23.1934 16.0395 23.2268H15.8222C15.655 23.2268 15.5546 23.2268 15.5546 23.2268L15.5045 21.6551L15.2871 14.064C15.4432 14.0194 15.6104 13.947 15.7887 13.8466C16.8254 13.3116 18.1463 12.0743 19.4171 10.8035C21.273 8.96427 23.0287 7.05814 23.6139 7.20862C24.684 7.47615 24.2827 13.0441 26.3393 12.8434C28.4126 12.6595 30.4693 10.7534 31.5059 11.372Z" fill="url(#paint2_linear_158_879)"/>
<path id="Vector_4" d="M26.005 12.8266C24.4166 11.5559 25.052 9.31533 24.7677 8.56291C24.3832 7.55968 23.614 7.20856 23.614 7.20856C23.614 7.20856 24.0655 7.52625 24.4166 10.0176C24.7677 12.5089 26.005 12.8266 26.005 12.8266Z" fill="url(#paint3_linear_158_879)"/>
<g id="Vector_5" style="mix-blend-mode:multiply" opacity="0.5">
<path d="M29.3658 16.221C28.6803 17.6756 27.9446 19.2139 27.2757 20.4178L16.0898 21.6049L15.5046 21.6551L9.4852 22.2905L3.3488 16.8396C2.69671 14.6492 6.75978 11.8068 12.2274 10.8537C14.4679 10.4691 16.9425 10.3855 19.4171 10.8035C19.9745 10.8927 20.5318 11.0098 21.0892 11.1547C25.4198 12.2917 27.9278 14.365 29.3658 16.221Z" fill="#DE376D"/>
</g>
<path id="Vector_6" d="M31.5728 11.5058C31.4391 10.4524 28.2455 14.6994 25.8879 15.201C23.547 15.6859 19.5843 6.35591 16.1566 5.16876C12.7289 6.35591 8.89992 15.6859 6.57579 15.201C4.2182 14.6994 0.138423 10.536 0.00465926 11.5894C-0.145825 12.6261 3.3989 20.3676 3.3989 20.3676C8.64912 21.5381 16.1232 21.9226 16.1232 21.9226C16.1232 21.9226 23.5805 21.5381 28.8307 20.3676C28.8307 20.3676 31.7233 12.5592 31.5728 11.5058Z" fill="url(#paint4_linear_158_879)"/>
<path id="Vector_7" d="M3.39893 20.3676L3.59957 25.0326C3.59957 25.0326 8.38161 26.9722 16.1065 26.9722C23.8313 26.9722 28.9645 24.8989 28.9645 24.8989L28.8307 20.3676C28.8307 20.3676 16.4743 22.675 3.39893 20.3676Z" fill="url(#paint5_linear_158_879)"/>
<path id="Vector_8" d="M2.91382 19.2975C2.91382 19.2975 2.17811 19.6152 2.21156 19.9663C2.245 20.3175 3.43214 21.2204 3.43214 21.2204C3.43214 21.2204 15.7049 24.414 28.8472 20.9696C28.8472 20.9696 29.817 19.9663 29.9006 19.565C29.9842 19.1637 29.2819 19.1303 29.2819 19.1303C29.2819 19.1303 24.0986 21.4043 15.7885 21.4043C7.47849 21.4043 2.91382 19.2975 2.91382 19.2975Z" fill="url(#paint6_linear_158_879)"/>
<path id="Vector_9" d="M26.0051 12.8267C26.9916 13.2113 29.4996 11.8736 30.0347 11.974C30.553 12.091 26.6237 14.8331 25.4533 14.7997C24.2829 14.7495 23.1626 13.1778 23.1626 13.1778C23.1626 13.1778 24.2829 15.1174 25.5202 15.3515C27.8109 15.7862 31.3389 11.6897 31.5061 11.372C31.6733 11.0543 31.1215 11.071 29.6668 11.5392C28.1453 12.0408 27.5266 12.8601 26.0051 12.8267Z" fill="url(#paint7_linear_158_879)"/>
<path id="Vector_10" d="M5.18801 12.5926C4.10118 13.1778 2.62978 12.091 2.09473 12.208C1.5764 12.3251 5.13785 14.9836 6.30828 14.9334C7.47871 14.8833 9.18419 13.2614 9.18419 13.2614C9.18419 13.2614 7.88 15.1508 6.62597 15.3849C4.33527 15.8196 0.255482 11.7566 0.0882779 11.4389C-0.0789263 11.1212 0.506295 11.071 1.94425 11.5392C3.46581 12.0408 3.66645 12.7431 5.18801 12.5926Z" fill="url(#paint8_linear_158_879)"/>
<path id="Vector_11" d="M11.0403 10.6864C11.0403 10.6864 15.003 5.77064 16.4911 6.10505C17.9793 6.42274 20.387 9.33209 20.387 9.33209C20.387 9.33209 17.5111 4.90118 16.1735 4.80086C14.8525 4.71726 11.0403 10.6864 11.0403 10.6864Z" fill="url(#paint9_linear_158_879)"/>
<path id="Vector_12" d="M12.4782 20.6518C9.30127 19.264 14.2171 13.5122 16.0062 12.7598C17.7952 12.0241 23.012 18.7791 20.621 20.0499C17.628 21.6383 12.4782 20.6518 12.4782 20.6518Z" fill="url(#paint10_linear_158_879)"/>
<path id="Vector_13" d="M12.0602 19.3309C11.8094 17.0737 14.2338 13.8633 16.3072 13.5958C18.3805 13.3116 21.2899 17.6589 20.9387 19.3309C20.5876 21.0197 12.2776 21.2371 12.0602 19.3309Z" fill="url(#paint11_linear_158_879)"/>
<g id="Vector_14" style="mix-blend-mode:soft-light">
<path d="M13.6484 18.9631C13.4812 18.0936 15.5044 15.5354 16.5076 15.3013C17.5108 15.0505 19.2665 17.592 19.2665 18.6454C19.2665 19.6821 13.8156 19.866 13.6484 18.9631Z" fill="white"/>
</g>
<path id="Vector_15" opacity="0.7" d="M12.2441 18.612C12.4782 19.03 13.331 18.9965 13.6319 18.4615C13.9329 17.9431 16.3574 15.3682 16.4577 14.9502C16.5413 14.5322 16.3072 13.5958 16.3072 13.5958C16.3072 13.5958 12.9798 14.4318 12.2441 18.612Z" fill="white"/>
<g id="Vector_16" style="mix-blend-mode:multiply" opacity="0.8">
<path d="M12.4112 19.8827C12.0601 19.5483 13.7823 19.147 13.7823 19.147C13.7823 19.147 14.9695 19.682 16.4576 19.5984C17.9457 19.5148 18.882 18.9631 19.1329 18.8962C19.3837 18.846 20.5374 19.4814 20.5541 19.6988C20.5875 19.9161 18.882 20.6685 16.4241 20.6685C13.9662 20.6685 12.4112 19.8827 12.4112 19.8827Z" fill="#B82774"/>
</g>
<path id="Vector_17" d="M12.0435 20.401C12.0435 20.401 14.3676 20.8525 16.4577 20.7856C19.7683 20.6853 21.0892 19.5817 21.0892 19.5817C21.0892 19.5817 20.805 20.9528 16.4577 21.0364C12.7624 21.0866 12.0435 20.401 12.0435 20.401Z" fill="url(#paint12_linear_158_879)"/>
<path id="Vector_18" d="M14.1835 14.9335C14.1835 14.9335 13.9996 16.037 14.7854 16.2377C15.5713 16.4383 16.2234 15.1675 16.3404 14.7495C16.4408 14.3482 16.307 13.5958 16.307 13.5958C16.307 13.5958 14.7854 14.181 14.1835 14.9335Z" fill="white"/>
<path id="Vector_19" d="M19.1997 18.2273C19.1496 18.1772 18.6981 19.0299 18.7984 19.0299C18.9155 19.0299 19.5341 18.9965 19.6177 19.0299C19.6846 19.0634 19.4004 18.428 19.1997 18.2273Z" fill="white"/>
<g id="Vector_20" style="mix-blend-mode:multiply" opacity="0.7">
<path d="M3.44922 21.2203C3.44922 21.2203 16.9593 26.1194 28.8475 20.9695C28.8475 20.9695 18.3471 24.3303 3.44922 21.2203Z" fill="#DE376D"/>
</g>
<g id="Vector_21" style="mix-blend-mode:soft-light">
<path d="M18.7816 21.3373C16.8588 22.2737 20.6209 22.1399 23.1624 21.9226C25.7039 21.7052 27.3091 20.2672 27.3425 20.0332C27.3927 19.7991 18.7816 21.3373 18.7816 21.3373Z" fill="white"/>
</g>
<g id="Vector_22" style="mix-blend-mode:multiply" opacity="0.2">
<path d="M5.52269 21.3875C3.91753 20.8525 5.0378 20.1502 8.93366 20.9528C12.8128 21.7554 8.24812 22.2904 5.52269 21.3875Z" fill="#E02774"/>
</g>
<g id="Vector_23" style="mix-blend-mode:soft-light" opacity="0.5">
<path d="M10.1708 12.7096C8.8833 14.2646 7.2447 20.3676 10.0872 19.7823C11.0904 19.5817 12.5952 13.1611 15.956 12.0408C19.3169 10.9372 22.1426 18.3444 23.1625 18.8962C24.1825 19.4479 25.1188 16.9232 25.1188 16.2711C25.1188 15.6022 18.6648 6.30568 16.1734 6.64009C13.6988 6.95778 14.167 7.91084 10.1708 12.7096Z" fill="white"/>
</g>
<g id="Vector_24" style="mix-blend-mode:multiply" opacity="0.2">
<path d="M2.21167 14.1309C2.21167 13.8801 5.28823 15.5019 6.22457 16.8396C7.16092 18.1605 7.87989 20.3007 7.91333 20.5013C7.96349 20.6853 5.37183 20.2338 4.73645 19.7824C4.08435 19.3309 2.21167 14.1309 2.21167 14.1309Z" fill="#E02774"/>
</g>
<g id="Vector_25" style="mix-blend-mode:multiply" opacity="0.2">
<path d="M5.05401 25.1998C4.20127 24.8319 4.80321 22.4911 4.95369 22.2068C5.10417 21.9226 11.7087 22.9593 12.7287 23.1933C13.7486 23.4441 13.8824 26.3702 13.7988 26.7046C13.6985 27.0223 7.07718 26.0693 5.05401 25.1998Z" fill="#E02774"/>
</g>
<g id="Vector_26" style="mix-blend-mode:soft-light">
<path d="M19.2667 26.8551C18.1965 26.9387 20.0191 23.4943 20.3869 23.3271C20.7548 23.1599 25.7709 21.9393 26.2391 22.0731C26.724 22.2236 26.9413 25.5509 26.9413 25.5509C26.9413 25.5509 22.6943 26.5542 19.2667 26.8551Z" fill="white"/>
</g>
<path id="Vector_27" d="M16.7752 5.35264C16.0395 5.11855 17.1932 6.99124 18.3302 7.66005C19.4839 8.32887 17.8955 5.7372 16.7752 5.35264Z" fill="white"/>
<path id="Vector_28" d="M26.7573 15.2177C25.8879 15.318 28.6133 13.2781 29.4995 12.8267C30.4024 12.3752 29.1316 14.9836 26.7573 15.2177Z" fill="white"/>
<path id="Vector_29" d="M23.6138 20.5849C22.8949 20.8692 24.918 21.12 25.7875 20.9026C26.657 20.6853 26.7907 20.1669 26.9412 20.0165C27.0917 19.8827 23.6138 20.5849 23.6138 20.5849Z" fill="white"/>
<g id="Vector_30" style="mix-blend-mode:soft-light">
<path d="M2.4626 19.7824C2.22851 20.1168 3.66646 20.9361 4.1012 20.9528C4.55265 20.9695 5.27162 20.5348 5.40539 20.3676C5.53915 20.2004 2.797 19.3309 2.4626 19.7824Z" fill="white"/>
</g>
<g id="Vector_31" style="mix-blend-mode:soft-light">
<path d="M3.85038 21.5547C3.53269 21.4209 3.51597 24.9155 3.93398 24.9657C4.33527 25.0158 4.75328 22.6415 4.82016 22.1566C4.87032 21.6717 3.85038 21.5547 3.85038 21.5547Z" fill="white"/>
</g>
<g id="Vector_32" style="mix-blend-mode:soft-light">
<path d="M0.573096 13.1443C0.606537 12.4254 3.68309 17.709 3.9339 18.5952C4.16798 19.4981 3.14804 19.4981 2.91396 19.1303C2.67987 18.7624 0.556376 13.5791 0.573096 13.1443Z" fill="white"/>
</g>
<g id="Vector_33" style="mix-blend-mode:multiply" opacity="0.3">
<path d="M27.8441 19.3476C26.5232 19.5817 27.9278 15.5521 29.9175 13.5457C31.9072 11.5392 29.0647 18.9464 28.9644 19.1303C28.8474 19.2975 27.8441 19.3476 27.8441 19.3476Z" fill="#FF6F74"/>
</g>
<g id="Vector_34" style="mix-blend-mode:multiply" opacity="0.3">
<path d="M26.9412 21.7052C26.5566 21.9894 26.9411 25.0326 27.1418 25.2332C27.3592 25.4339 28.5463 24.8486 28.747 24.648C28.9476 24.4306 28.8807 21.6718 28.747 21.3708C28.6132 21.0698 26.9412 21.7052 26.9412 21.7052Z" fill="#FF6F74"/>
</g>
<g id="Vector_35" style="mix-blend-mode:multiply" opacity="0.7">
<path d="M3.51611 23.2268C3.51611 23.2268 5.77337 27.3568 16.8089 26.7715C27.8443 26.1863 28.881 23.3271 28.881 23.3271L28.9646 24.8988C28.9646 24.8988 16.8757 29.5471 3.59972 25.0326L3.51611 23.2268Z" fill="#DE376D"/>
</g>
<path id="Vector_36" d="M0.57318 11.5392C0.238772 11.9405 2.37898 13.5624 2.73011 13.8132C3.06452 14.064 3.64974 14.1141 3.75006 14.1141C3.85038 14.1141 1.30888 11.6061 0.57318 11.5392Z" fill="white"/>
<path id="Vector_37" d="M17.2437 20.9194C17.0932 20.585 19.4675 20.585 19.4675 20.585C19.4675 20.585 18.063 21.1869 17.2437 20.9194Z" fill="white"/>
<g id="Vector_38" style="mix-blend-mode:multiply" opacity="0.8">
<path d="M11.4413 19.264C11.4413 19.264 13.5146 13.8801 16.3404 13.6961C19.1494 13.4955 21.2228 19.0299 21.2228 19.0299C21.2395 17.1573 18.514 12.5591 16.5076 12.3083C14.4844 12.0408 11.341 17.4248 11.4413 19.264Z" fill="#D12774"/>
</g>
<g id="Vector_39" style="mix-blend-mode:multiply" opacity="0.7">
<path d="M2.9142 19.2975C2.9142 19.2975 14.468 23.6949 29.2823 19.1303L30.018 17.0235C30.018 17.0235 25.2694 21.2705 16.1066 21.0364C6.9271 20.819 2.3457 17.9431 2.3457 17.9431L2.9142 19.2975Z" fill="#DE376D"/>
</g>
</g>
</g>
<defs>
<linearGradient id="paint0_linear_158_879" x1="429.101" y1="-3266.77" x2="429.101" y2="-3375.37" gradientUnits="userSpaceOnUse">
<stop offset="0.05" stop-color="#F33C00"/>
<stop offset="1" stop-color="#FF4F04"/>
</linearGradient>
<linearGradient id="paint1_linear_158_879" x1="2115.37" y1="-8952.69" x2="2115.37" y2="-10506.6" gradientUnits="userSpaceOnUse">
<stop offset="0.05" stop-color="#FF3F00"/>
<stop offset="1" stop-color="#FF7C04"/>
</linearGradient>
<linearGradient id="paint2_linear_158_879" x1="2128.58" y1="-10414.8" x2="2128.58" y2="-11969.6" gradientUnits="userSpaceOnUse">
<stop offset="0.05" stop-color="#FF3F00"/>
<stop offset="1" stop-color="#FF7C04"/>
</linearGradient>
<linearGradient id="paint3_linear_158_879" x1="329.434" y1="-3923.21" x2="329.434" y2="-4003.5" gradientUnits="userSpaceOnUse">
<stop offset="0.05" stop-color="#F33C00"/>
<stop offset="1" stop-color="#FF4F04"/>
</linearGradient>
<linearGradient id="paint4_linear_158_879" x1="17684.4" y1="1983.39" x2="23650.9" y2="1983.39" gradientUnits="userSpaceOnUse">
<stop stop-color="#FF9600"/>
<stop offset="1" stop-color="#FFA900"/>
</linearGradient>
<linearGradient id="paint5_linear_158_879" x1="14826.1" y1="1401.34" x2="18733" y2="1401.34" gradientUnits="userSpaceOnUse">
<stop stop-color="#FF9600"/>
<stop offset="1" stop-color="#FFA900"/>
</linearGradient>
<linearGradient id="paint6_linear_158_879" x1="15874.3" y1="712.608" x2="20462.7" y2="712.608" gradientUnits="userSpaceOnUse">
<stop stop-color="#FF9600"/>
<stop offset="1" stop-color="#FFA900"/>
</linearGradient>
<linearGradient id="paint7_linear_158_879" x1="1314.44" y1="-2934.88" x2="1314.44" y2="-3146.43" gradientUnits="userSpaceOnUse">
<stop stop-color="#FFDE00"/>
<stop offset="1" stop-color="#FFE834"/>
</linearGradient>
<linearGradient id="paint8_linear_158_879" x1="1412.42" y1="-2345.58" x2="1412.42" y2="-2575.58" gradientUnits="userSpaceOnUse">
<stop stop-color="#FFDE00"/>
<stop offset="1" stop-color="#FFE834"/>
</linearGradient>
<linearGradient id="paint9_linear_158_879" x1="1096.37" y1="-3676.8" x2="1096.37" y2="-4006.19" gradientUnits="userSpaceOnUse">
<stop stop-color="#FFDE00"/>
<stop offset="1" stop-color="#FFE834"/>
</linearGradient>
<linearGradient id="paint10_linear_158_879" x1="1611.98" y1="-5158.59" x2="1611.98" y2="-5642.05" gradientUnits="userSpaceOnUse">
<stop offset="0.05" stop-color="#FF4B00"/>
<stop offset="1" stop-color="#FF7204"/>
</linearGradient>
<linearGradient id="paint11_linear_158_879" x1="1515.12" y1="-4465.26" x2="1515.12" y2="-4844.28" gradientUnits="userSpaceOnUse">
<stop stop-color="#DE0086"/>
<stop offset="1" stop-color="#FF003B"/>
</linearGradient>
<linearGradient id="paint12_linear_158_879" x1="5724.2" y1="316.192" x2="6213.32" y2="316.192" gradientUnits="userSpaceOnUse">
<stop stop-color="#FFDE00"/>
<stop offset="1" stop-color="#FFE834"/>
</linearGradient>
</defs>
</svg>
