<svg width="24" height="25" viewBox="0 0 24 25" fill="none" xmlns="http://www.w3.org/2000/svg">
<g id="fluent-emoji-high-contrast:handshake">
<g id="Group 1597880513">
<g id="Group 1597880512">
<g id="Group 1597880508">
<ellipse id="Ellipse 1462" cx="0.996363" cy="0.87449" rx="0.996363" ry="0.87449" transform="matrix(-0.689981 0.723827 0.723827 0.689981 21.125 19.5687)" fill="url(#paint0_linear_2005_249)"/>
<rect id="Rectangle 2" width="7.9562" height="1.97698" transform="matrix(-0.734326 -0.678797 -0.678797 0.734326 21.7141 20.141)" fill="url(#paint1_linear_2005_249)"/>
</g>
<path id="Vector 3" d="M6.47841 5.56008C6.96802 6.2945 12.3946 11.5782 15.0466 14.1283L13.8226 15.3523C10.8645 12.4963 5.13198 6.4169 4.64236 6.17209C4.15275 5.92729 3.41833 3.62203 3.11232 2.5L4.64236 2.80601L6.47841 5.56008Z" fill="url(#paint2_linear_2005_249)"/>
<path id="Vector 4" d="M14.7406 14.4343L15.0466 14.1283L4.64236 2.80603C4.64236 3.21404 4.70356 4.45847 4.94837 4.94809C5.19318 5.4377 11.5785 11.4763 14.7406 14.4343Z" fill="#EEE8E3"/>
<rect id="Rectangle 1" width="2.39678" height="2.05616" transform="matrix(-0.693903 0.720068 0.720068 0.693903 14.8823 13.4204)" fill="url(#paint3_linear_2005_249)"/>
<ellipse id="Ellipse 1461" cx="2.36815" cy="0.55059" rx="2.36815" ry="0.55059" transform="matrix(-0.689981 0.723827 0.723827 0.689981 16.0857 12.9043)" fill="url(#paint4_linear_2005_249)"/>
<g id="Group 1597880509">
<rect id="Rectangle 3" x="0.0535514" y="-0.0535514" width="0.642617" height="0.642617" transform="matrix(-1 0 0 1 20.3561 19.7129)" fill="white" stroke="black" stroke-width="0.107103"/>
<rect id="Rectangle 4" x="0.0535514" y="-0.0535514" width="0.642617" height="0.642617" transform="matrix(-1 0 0 1 19.8207 19.1775)" fill="white" stroke="black" stroke-width="0.107103"/>
<rect id="Rectangle 5" x="0.0535514" y="-0.0535514" width="0.642617" height="0.642617" transform="matrix(-1 0 0 1 19.2848 18.642)" fill="white" stroke="black" stroke-width="0.107103"/>
<rect id="Rectangle 6" x="0.0535514" y="-0.0535514" width="0.642617" height="0.642617" transform="matrix(-1 0 0 1 18.7497 18.1064)" fill="white" stroke="black" stroke-width="0.107103"/>
<rect id="Rectangle 7" x="0.0535514" y="-0.0535514" width="0.642617" height="0.642617" transform="matrix(-1 0 0 1 18.2143 17.5709)" fill="white" stroke="black" stroke-width="0.107103"/>
<rect id="Rectangle 8" x="0.0535514" y="-0.0535514" width="0.642617" height="0.642617" transform="matrix(-1 0 0 1 17.6784 17.0354)" fill="white" stroke="black" stroke-width="0.107103"/>
<rect id="Rectangle 9" x="0.0535514" y="-0.0535514" width="0.642617" height="0.642617" transform="matrix(-1 0 0 1 17.1432 16.4999)" fill="white" stroke="black" stroke-width="0.107103"/>
<rect id="Rectangle 10" x="0.0535514" y="-0.0535514" width="0.642617" height="0.642617" transform="matrix(-1 0 0 1 16.6073 15.9644)" fill="white" stroke="black" stroke-width="0.107103"/>
</g>
</g>
<g id="Group 1597880511">
<g id="Group 1597880508_2">
<ellipse id="Ellipse 1462_2" cx="3.82109" cy="20.8933" rx="0.996363" ry="0.87449" transform="rotate(46.3714 3.82109 20.8933)" fill="url(#paint5_linear_2005_249)"/>
<rect id="Rectangle 2_2" x="3.17749" y="20.141" width="7.9562" height="1.97698" transform="rotate(-42.7497 3.17749 20.141)" fill="url(#paint6_linear_2005_249)"/>
</g>
<path id="Vector 3_2" d="M18.4129 5.56008C17.9233 6.2945 12.4968 11.5782 9.84473 14.1283L11.0688 15.3523C14.0268 12.4963 19.7594 6.4169 20.249 6.17209C20.7386 5.92729 21.473 3.62203 21.779 2.5L20.249 2.80601L18.4129 5.56008Z" fill="url(#paint7_linear_2005_249)"/>
<path id="Vector 4_2" d="M10.1507 14.4343L9.84473 14.1283L20.249 2.80603C20.249 3.21404 20.1878 4.45847 19.943 4.94809C19.6982 5.4377 13.3128 11.4763 10.1507 14.4343Z" fill="#EEE8E3"/>
<rect id="Rectangle 1_2" x="10.009" y="13.4204" width="2.39678" height="2.05616" transform="rotate(46.0601 10.009 13.4204)" fill="url(#paint8_linear_2005_249)"/>
<ellipse id="Ellipse 1461_2" cx="10.0411" cy="14.9983" rx="2.36815" ry="0.55059" transform="rotate(46.3714 10.0411 14.9983)" fill="url(#paint9_linear_2005_249)"/>
<g id="Group 1597880509_2">
<rect id="Rectangle 3_2" x="4.58878" y="19.6593" width="0.642617" height="0.642617" fill="white" stroke="black" stroke-width="0.107103"/>
<rect id="Rectangle 4_2" x="5.12418" y="19.1239" width="0.642617" height="0.642617" fill="white" stroke="black" stroke-width="0.107103"/>
<rect id="Rectangle 5_2" x="5.66007" y="18.5884" width="0.642617" height="0.642617" fill="white" stroke="black" stroke-width="0.107103"/>
<rect id="Rectangle 6_2" x="6.19523" y="18.0529" width="0.642617" height="0.642617" fill="white" stroke="black" stroke-width="0.107103"/>
<rect id="Rectangle 7_2" x="6.73063" y="17.5174" width="0.642617" height="0.642617" fill="white" stroke="black" stroke-width="0.107103"/>
<rect id="Rectangle 8_2" x="7.26652" y="16.9818" width="0.642617" height="0.642617" fill="white" stroke="black" stroke-width="0.107103"/>
<rect id="Rectangle 9_2" x="7.80167" y="16.4463" width="0.642617" height="0.642617" fill="white" stroke="black" stroke-width="0.107103"/>
<rect id="Rectangle 10_2" x="8.33756" y="15.9108" width="0.642617" height="0.642617" fill="white" stroke="black" stroke-width="0.107103"/>
</g>
</g>
</g>
</g>
<defs>
<linearGradient id="paint0_linear_2005_249" x1="0" y1="0.87449" x2="1.99273" y2="0.87449" gradientUnits="userSpaceOnUse">
<stop stop-color="#71463E"/>
<stop offset="0.29" stop-color="#F19316"/>
<stop offset="1" stop-color="#71463E"/>
</linearGradient>
<linearGradient id="paint1_linear_2005_249" x1="2.7463" y1="0.1847" x2="2.81427" y2="1.91441" gradientUnits="userSpaceOnUse">
<stop stop-color="#F19316"/>
<stop offset="0.257811" stop-color="#FF0713"/>
<stop offset="1" stop-color="#59080C"/>
</linearGradient>
<linearGradient id="paint2_linear_2005_249" x1="9.53849" y1="8.62016" x2="8.31446" y2="9.84419" gradientUnits="userSpaceOnUse">
<stop offset="0.335272" stop-color="#9F9997"/>
<stop offset="1" stop-color="#494746"/>
</linearGradient>
<linearGradient id="paint3_linear_2005_249" x1="0" y1="1.02808" x2="2.39678" y2="1.02808" gradientUnits="userSpaceOnUse">
<stop stop-color="#E98F2F"/>
<stop offset="1" stop-color="#71463E"/>
</linearGradient>
<linearGradient id="paint4_linear_2005_249" x1="0" y1="0.55059" x2="4.73631" y2="0.55059" gradientUnits="userSpaceOnUse">
<stop stop-color="#71463E"/>
<stop offset="0.29" stop-color="#F19316"/>
<stop offset="1" stop-color="#71463E"/>
</linearGradient>
<linearGradient id="paint5_linear_2005_249" x1="2.82473" y1="20.8933" x2="4.81746" y2="20.8933" gradientUnits="userSpaceOnUse">
<stop stop-color="#71463E"/>
<stop offset="0.29" stop-color="#F19316"/>
<stop offset="1" stop-color="#71463E"/>
</linearGradient>
<linearGradient id="paint6_linear_2005_249" x1="5.92379" y1="20.3257" x2="5.99176" y2="22.0554" gradientUnits="userSpaceOnUse">
<stop stop-color="#F19316"/>
<stop offset="0.257811" stop-color="#FF0713"/>
<stop offset="1" stop-color="#59080C"/>
</linearGradient>
<linearGradient id="paint7_linear_2005_249" x1="15.3529" y1="8.62016" x2="16.5769" y2="9.84419" gradientUnits="userSpaceOnUse">
<stop offset="0.335272" stop-color="#9F9997"/>
<stop offset="1" stop-color="#494746"/>
</linearGradient>
<linearGradient id="paint8_linear_2005_249" x1="10.009" y1="14.4485" x2="12.4058" y2="14.4485" gradientUnits="userSpaceOnUse">
<stop stop-color="#E98F2F"/>
<stop offset="1" stop-color="#71463E"/>
</linearGradient>
<linearGradient id="paint9_linear_2005_249" x1="7.67296" y1="14.9983" x2="12.4093" y2="14.9983" gradientUnits="userSpaceOnUse">
<stop stop-color="#71463E"/>
<stop offset="0.29" stop-color="#F19316"/>
<stop offset="1" stop-color="#71463E"/>
</linearGradient>
</defs>
</svg>
