<svg width="24" height="24" viewBox="0 0 24 24" fill="none" xmlns="http://www.w3.org/2000/svg">
<g id="fluent-emoji-flat:wheel">
<circle id="Ellipse 1464" cx="12" cy="12" r="10.5" fill="#730603"/>
<g id="Ellipse 1465">
<mask id="path-2-inside-1_158_719" fill="white">
<path d="M21.5 12C21.5 13.3132 21.2413 14.6136 20.7388 15.8268C20.2362 17.0401 19.4997 18.1425 18.5711 19.0711C17.6425 19.9997 16.5401 20.7362 15.3268 21.2388C14.1136 21.7413 12.8132 22 11.5 22V12H21.5Z"/>
</mask>
<path d="M21.5 12C21.5 13.3132 21.2413 14.6136 20.7388 15.8268C20.2362 17.0401 19.4997 18.1425 18.5711 19.0711C17.6425 19.9997 16.5401 20.7362 15.3268 21.2388C14.1136 21.7413 12.8132 22 11.5 22V12H21.5Z" fill="#9D0A06" stroke="url(#paint0_angular_158_719)" stroke-width="2" mask="url(#path-2-inside-1_158_719)"/>
</g>
<g id="Ellipse 1466">
<mask id="path-3-inside-2_158_719" fill="white">
<path d="M2 12.5C2 11.1211 2.27159 9.75574 2.79926 8.48182C3.32694 7.2079 4.10036 6.05039 5.07538 5.07538C6.05039 4.10036 7.20791 3.32694 8.48182 2.79926C9.75574 2.27159 11.1211 2 12.5 2V12.5H2Z"/>
</mask>
<path d="M2 12.5C2 11.1211 2.27159 9.75574 2.79926 8.48182C3.32694 7.2079 4.10036 6.05039 5.07538 5.07538C6.05039 4.10036 7.20791 3.32694 8.48182 2.79926C9.75574 2.27159 11.1211 2 12.5 2V12.5H2Z" fill="#9D0A06" stroke="url(#paint1_angular_158_719)" stroke-width="2" mask="url(#path-3-inside-2_158_719)"/>
</g>
<g id="Wheel Icon">
<path id="Vector" d="M12.0015 1.5C6.2025 1.5 1.5 6.2025 1.5 12.0015C1.5 17.7998 6.2025 22.5023 12.0015 22.5023C17.7998 22.5023 22.5 17.7998 22.5 12.0015C22.5 6.2025 17.7998 1.5 12.0015 1.5ZM12.0015 20.0648C7.335 20.0648 3.92475 16.665 3.92475 11.9985C3.92475 7.33275 7.335 3.915 12.0015 3.915C16.668 3.915 20.0753 7.33275 20.0753 11.9985C20.073 16.668 16.668 20.0648 12.0015 20.0648Z" fill="url(#paint2_angular_158_719)"/>
<path id="Vector_2" d="M12.0018 4.30279C13.5155 4.3001 14.9963 4.74483 16.2581 5.58109C17.5199 6.41735 18.5065 7.60786 19.0938 9.00304C19.495 9.95254 19.6968 10.9605 19.6968 11.9985C19.6968 13.0365 19.4928 14.0468 19.0938 14.994C18.7079 15.9094 18.1475 16.7409 17.4438 17.442C16.7297 18.1574 15.8814 18.7246 14.9475 19.1111C14.0136 19.4976 13.0125 19.6958 12.0018 19.6943C10.9909 19.6959 9.98971 19.4978 9.05566 19.1113C8.12161 18.7248 7.27315 18.1575 6.55903 17.442C5.84336 16.7279 5.27589 15.8793 4.88924 14.9451C4.50259 14.011 4.30439 13.0096 4.30603 11.9985C4.30449 10.9876 4.50274 9.98638 4.88938 9.05233C5.27603 8.11828 5.84345 7.26985 6.55903 6.55579C7.27309 5.8402 8.12152 5.27278 9.05557 4.88614C9.98962 4.49949 10.9909 4.30125 12.0018 4.30279ZM12.0018 3.55054C7.33528 3.55054 3.55078 7.33504 3.55078 12.0008C3.55078 16.6673 7.33528 20.4518 12.0018 20.4518C16.6675 20.4518 20.452 16.6673 20.452 12.0008C20.4498 7.33504 16.6675 3.55054 12.0018 3.55054Z" fill="#AA0803"/>
<path id="Vector_3" d="M12.0015 14.5327C12.3339 14.5327 12.663 14.4672 12.9701 14.34C13.2772 14.2128 13.5563 14.0264 13.7913 13.7913C14.0264 13.5563 14.2128 13.2772 14.34 12.9701C14.4672 12.663 14.5327 12.3339 14.5327 12.0015C14.5327 11.6691 14.4672 11.3399 14.34 11.0328C14.2128 10.7257 14.0264 10.4466 13.7913 10.2116C13.5563 9.97655 13.2772 9.7901 12.9701 9.66289C12.663 9.53569 12.3339 9.47021 12.0015 9.47021C11.3301 9.47021 10.6863 9.7369 10.2116 10.2116C9.7369 10.6863 9.47021 11.3301 9.47021 12.0015C9.47021 12.6728 9.7369 13.3166 10.2116 13.7913C10.6863 14.266 11.3301 14.5327 12.0015 14.5327Z" fill="url(#paint3_angular_158_719)"/>
</g>
<path id="Polygon 1" d="M12 5L13.7322 2.75H10.2681L12 5Z" fill="url(#paint4_angular_158_719)"/>
</g>
<defs>
<radialGradient id="paint0_angular_158_719" cx="0" cy="0" r="1" gradientUnits="userSpaceOnUse" gradientTransform="translate(11.5 12) rotate(90) scale(10)">
<stop offset="0.254038" stop-color="#EA8649"/>
<stop offset="0.495125" stop-color="#F9D969"/>
<stop offset="0.748167" stop-color="#EA8649"/>
<stop offset="0.999127" stop-color="#F9D969"/>
</radialGradient>
<radialGradient id="paint1_angular_158_719" cx="0" cy="0" r="1" gradientUnits="userSpaceOnUse" gradientTransform="translate(12.5 12.5) rotate(-90) scale(10.5)">
<stop offset="0.254038" stop-color="#EA8649"/>
<stop offset="0.495125" stop-color="#F9D969"/>
<stop offset="0.748167" stop-color="#EA8649"/>
<stop offset="0.999127" stop-color="#F9D969"/>
</radialGradient>
<radialGradient id="paint2_angular_158_719" cx="0" cy="0" r="1" gradientUnits="userSpaceOnUse" gradientTransform="translate(12 12.0011) rotate(90) scale(10.5011 10.5)">
<stop offset="0.254038" stop-color="#EA8649"/>
<stop offset="0.495125" stop-color="#F9D969"/>
<stop offset="0.748167" stop-color="#EA8649"/>
<stop offset="0.999127" stop-color="#F9D969"/>
</radialGradient>
<radialGradient id="paint3_angular_158_719" cx="0" cy="0" r="1" gradientUnits="userSpaceOnUse" gradientTransform="translate(12.0015 12.0015) rotate(90) scale(2.53125)">
<stop offset="0.254038" stop-color="#EA8649"/>
<stop offset="0.495125" stop-color="#F9D969"/>
<stop offset="0.748167" stop-color="#EA8649"/>
<stop offset="0.999127" stop-color="#F9D969"/>
</radialGradient>
<radialGradient id="paint4_angular_158_719" cx="0" cy="0" r="1" gradientUnits="userSpaceOnUse" gradientTransform="translate(12.0001 3.875) rotate(-90) scale(1.125 1.73205)">
<stop offset="0.254038" stop-color="#EA8649"/>
<stop offset="0.495125" stop-color="#F9D969"/>
<stop offset="0.748167" stop-color="#EA8649"/>
<stop offset="0.999127" stop-color="#F9D969"/>
</radialGradient>
</defs>
</svg>
