<svg width="24" height="24" viewBox="0 0 24 24" fill="none" xmlns="http://www.w3.org/2000/svg">
<g id="twemoji:rolled-up-newspaper" clip-path="url(#clip0_158_706)">
<path id="Vector" d="M21.1192 3.14928C21.0645 3.09128 21.0132 3.03195 20.9565 2.97528C19.0045 1.02262 16.3659 0.494617 15.0645 1.79595L0.921875 15.9386L4.62588 19.6426L21.1192 3.14928Z" fill="#59080C"/>
<path id="Vector_2" d="M6.81461 17.1173C4.86261 15.1647 2.22394 14.6367 0.921939 15.9387C-0.380061 17.2407 0.147939 19.8787 2.10061 21.8307C4.05327 23.784 6.69127 24.3113 7.99327 23.01C9.29461 21.708 8.76727 19.07 6.81461 17.1173Z" fill="#59080C"/>
<path id="Vector_3" d="M21.1199 3.14929C22.9346 5.08129 23.3993 7.60396 22.1353 8.86729L7.99326 23.01C9.29526 21.708 8.76726 19.0706 6.81459 17.1173L4.22192 14.5246L18.3639 0.381958L21.1253 3.14329L21.1199 3.14929Z" fill="#FFEEDB"/>
<path id="Vector_4" d="M22.0628 2.20662C23.8774 4.13862 24.3428 6.66129 23.0781 7.92462L8.93609 22.0666C10.2381 20.7653 9.71075 18.1273 7.75742 16.1746L6.10742 14.5246L20.2494 0.381958L22.0681 2.20062L22.0628 2.20662Z" fill="white"/>
<path id="Vector_5" d="M1.47328 16.6687C0.53861 17.6027 0.91461 19.5827 2.32728 21.1747C3.60461 22.6134 5.62528 23.8467 7.11794 22.5901C7.62594 22.1681 7.89328 21.5187 7.88261 20.7667C7.86394 19.4507 7.01728 17.9721 5.67394 16.9067C5.56975 16.8251 5.43757 16.7877 5.30605 16.8028C5.17453 16.8179 5.05426 16.8842 4.97128 16.9874C4.93046 17.0389 4.90018 17.0979 4.88217 17.1611C4.86417 17.2242 4.85879 17.2903 4.86634 17.3556C4.8739 17.4208 4.89423 17.484 4.92619 17.5414C4.95816 17.5988 5.00111 17.6493 5.05261 17.6901C6.15061 18.5601 6.86861 19.7741 6.88328 20.7821C6.88794 21.0981 6.81994 21.5354 6.47528 21.8261C5.46594 22.6747 3.86394 21.3987 3.07594 20.5121C1.95861 19.2534 1.70728 17.8494 2.18061 17.3761C2.30328 17.2534 2.45528 17.2221 2.64394 17.2781C3.22861 17.4527 3.97728 18.3861 4.33328 20.0814C4.34636 20.146 4.37211 20.2075 4.40904 20.2621C4.44597 20.3168 4.49334 20.3636 4.54844 20.3998C4.60353 20.4361 4.66526 20.4611 4.73006 20.4734C4.79486 20.4857 4.86145 20.4851 4.926 20.4715C4.99056 20.458 5.05179 20.4318 5.10618 20.3945C5.16057 20.3572 5.20704 20.3095 5.24291 20.2541C5.27879 20.1988 5.30336 20.1369 5.3152 20.072C5.32705 20.0071 5.32594 19.9405 5.31194 19.8761C4.91928 18.0027 4.00661 16.6407 2.92994 16.3194C2.38794 16.1574 1.85728 16.2854 1.47328 16.6687ZM18.9546 2.8574C18.9049 2.90689 18.8662 2.96628 18.841 3.03172C18.8157 3.09715 18.8045 3.16716 18.8081 3.2372C18.8117 3.30724 18.83 3.37574 18.8618 3.43826C18.8935 3.50077 18.9381 3.5559 18.9926 3.60006C19.0133 3.61606 21.0593 5.29273 21.1639 7.4774C21.1754 7.60617 21.2363 7.72551 21.3338 7.81042C21.4313 7.89534 21.5578 7.93925 21.687 7.93296C21.8161 7.92667 21.9378 7.87067 22.0266 7.77669C22.1154 7.6827 22.1643 7.55801 22.1633 7.42873C22.0366 4.78873 19.7179 2.8994 19.6193 2.82073C19.5235 2.74376 19.4026 2.70493 19.2799 2.71169C19.1572 2.71846 19.0414 2.77036 18.9546 2.8574ZM17.5399 4.2714C17.4902 4.32094 17.4514 4.38041 17.4262 4.44594C17.4009 4.51146 17.3898 4.58157 17.3934 4.65169C17.3971 4.72182 17.4154 4.79039 17.4473 4.85294C17.4792 4.91549 17.524 4.97062 17.5786 5.01473C17.5993 5.03073 19.6453 6.7074 19.7499 8.89207C19.7564 9.02459 19.8152 9.14911 19.9135 9.23826C20.0118 9.3274 20.1414 9.37385 20.2739 9.3674C20.4065 9.36094 20.531 9.30211 20.6201 9.20384C20.7093 9.10557 20.7557 8.97592 20.7493 8.8434C20.6219 6.2034 18.3039 4.31406 18.2053 4.2354C18.1095 4.15815 17.9886 4.11909 17.8657 4.12574C17.7429 4.13238 17.6268 4.18427 17.5399 4.2714ZM11.8826 9.92873C11.8702 9.94118 11.8582 9.95429 11.8466 9.96806C11.8053 10.0191 11.7745 10.0779 11.7559 10.1409C11.7373 10.2038 11.7313 10.2699 11.7382 10.3352C11.7452 10.4005 11.7649 10.4638 11.7963 10.5215C11.8277 10.5792 11.8702 10.6301 11.9213 10.6714C11.9419 10.6874 13.9879 12.3641 14.0926 14.5487C14.0991 14.6813 14.1579 14.8058 14.2562 14.8949C14.3544 14.9841 14.4841 15.0305 14.6166 15.0241C14.7491 15.0176 14.8737 14.9588 14.9628 14.8605C15.0519 14.7622 15.0984 14.6326 15.0919 14.5001C14.9646 11.8607 12.6466 9.97073 12.5479 9.89207C12.4521 9.81491 12.3311 9.77596 12.2082 9.78273C12.0854 9.7895 11.9694 9.84151 11.8826 9.92873ZM8.58328 13.2281C8.53376 13.2777 8.4952 13.3372 8.47008 13.4027C8.44495 13.4681 8.43382 13.5381 8.4374 13.6082C8.44098 13.6782 8.45919 13.7467 8.49086 13.8093C8.52253 13.8718 8.56696 13.9271 8.62128 13.9714C8.64261 13.9874 10.6879 15.6641 10.7926 17.8487C10.7992 17.9813 10.8581 18.1057 10.9564 18.1948C11.0547 18.2839 11.1844 18.3303 11.3169 18.3237C11.4495 18.3172 11.574 18.2583 11.663 18.1599C11.7521 18.0616 11.7985 17.9319 11.7919 17.7994C11.6646 15.1601 9.34728 13.2707 9.24794 13.1914C9.15215 13.1144 9.03128 13.0756 8.90858 13.0824C8.78588 13.0891 8.67002 13.141 8.58328 13.2281Z" fill="#F99A07"/>
<path id="Vector_6" d="M16.5168 13.0261C17.3808 12.1274 18.8435 10.7707 19.0208 10.5854C19.4295 10.1574 17.9935 6.9374 16.8195 6.01606C16.5621 5.81406 16.2468 5.9774 16.1115 6.11606C15.3006 6.9462 14.4834 7.77022 13.6601 8.58806C13.5061 8.74206 13.4168 9.02206 13.6341 9.22273C14.3455 9.87873 15.6248 11.5054 15.9861 12.9981C16.0288 13.1721 16.3381 13.2134 16.5168 13.0261Z" fill="#E98F2F"/>
</g>
<defs>
<clipPath id="clip0_158_706">
<rect width="24" height="24" fill="white"/>
</clipPath>
</defs>
</svg>
